<svg width="1024" height="250" viewBox="0 0 1024 250" fill="none" xmlns="http://www.w3.org/2000/svg">
<g clip-path="url(#clip0_14_2)">
<rect width="1024" height="250" fill="white"/>
<g clip-path="url(#clip1_14_2)">
<rect width="193" height="140.729" transform="translate(0 109.271)" fill="white"/>
<path d="M173.941 158.772H173.736C171.508 158.769 169.372 157.885 167.797 156.312C166.222 154.74 165.336 152.608 165.333 150.385V147.521H140.33V147.112H165.743V150.385C165.745 152.465 166.56 154.461 168.015 155.95C169.469 157.44 171.448 158.304 173.531 158.36V147.112H179.474C180.289 147.111 181.07 146.788 181.647 146.213C182.223 145.637 182.547 144.858 182.548 144.044V112.748C182.547 111.935 182.223 111.155 181.647 110.58C181.07 110.004 180.289 109.681 179.474 109.68H101.187C100.372 109.681 99.5905 110.004 99.0142 110.58C98.4379 111.155 98.1137 111.935 98.1128 112.748V135.453H97.7029V112.748C97.7039 111.826 98.0713 110.942 98.7245 110.29C99.3776 109.639 100.263 109.272 101.187 109.271H179.474C180.398 109.272 181.283 109.639 181.936 110.29C182.589 110.942 182.957 111.826 182.958 112.748V144.044C182.957 144.966 182.589 145.85 181.936 146.502C181.283 147.154 180.398 147.52 179.474 147.521H173.941V158.772Z" fill="#CCCCCC"/>
<path d="M166.558 119.603C166.533 118.943 166.252 118.318 165.775 117.86C165.298 117.402 164.663 117.146 164.001 117.146H116.66C115.98 117.146 115.329 117.415 114.848 117.895C114.368 118.374 114.098 119.025 114.098 119.703C114.098 120.381 114.368 121.031 114.848 121.511C115.329 121.99 115.98 122.26 116.66 122.26H164.001C164.68 122.259 165.331 121.989 165.811 121.51C166.291 121.03 166.562 120.381 166.563 119.703C166.563 119.669 166.562 119.636 166.558 119.603Z" fill="#CCCCCC"/>
<path d="M166.558 128.194C166.533 127.534 166.252 126.909 165.775 126.451C165.298 125.993 164.663 125.737 164.001 125.737H116.66C115.98 125.737 115.329 126.006 114.848 126.486C114.368 126.965 114.098 127.616 114.098 128.294C114.098 128.972 114.368 129.622 114.848 130.102C115.329 130.581 115.98 130.851 116.66 130.851H164.001C164.68 130.85 165.331 130.58 165.811 130.101C166.291 129.621 166.562 128.972 166.563 128.294C166.563 128.26 166.562 128.227 166.558 128.194Z" fill="#CCCCCC"/>
<path d="M166.559 136.785C166.533 136.125 166.252 135.5 165.775 135.042C165.299 134.584 164.663 134.328 164.001 134.328H116.66C116.284 134.328 115.914 134.41 115.574 134.57C115.234 134.729 114.933 134.96 114.693 135.248C114.587 135.376 114.494 135.513 114.414 135.658H137.051C137.866 135.659 138.648 135.982 139.224 136.557C139.8 137.133 140.125 137.912 140.126 138.726V139.442H164.001C164.68 139.441 165.331 139.171 165.811 138.692C166.292 138.212 166.562 137.563 166.563 136.885C166.564 136.851 166.562 136.818 166.559 136.785Z" fill="#CCCCCC"/>
<path d="M5.02452 249.326C5.13601 249.417 5.24755 249.505 5.36168 249.591H33.5213C33.731 249.505 33.9399 249.416 34.1478 249.326C37.1206 248.035 39.8876 246.315 42.3605 244.223C44.0025 242.834 45.5131 241.401 46.6082 240.057C48.136 238.182 49.543 236.139 50.1975 233.812C50.8505 231.484 50.6555 228.816 49.1966 226.885C48.7449 226.291 48.1895 225.784 47.5572 225.387C47.4524 225.321 47.3462 225.257 47.2374 225.197C45.4224 224.222 43.3053 223.968 41.3105 224.486C38.4897 225.213 36.1456 227.244 34.473 229.626C32.8005 232.007 31.7146 234.742 30.6448 237.446C29.559 232.619 26.271 228.296 21.8295 226.098C17.3893 223.9 11.8726 223.927 7.5267 226.308C6.15928 227.061 4.92407 228.032 3.86966 229.183C3.76485 229.295 3.66257 229.41 3.56172 229.527C1.44189 231.977 0.115783 235.114 0.00695812 238.349C-0.0419693 240.438 0.384094 242.511 1.25314 244.413C2.12218 246.314 3.4116 247.994 5.02452 249.326Z" fill="#F2F2F2"/>
<path d="M32.3958 249.591H32.794C32.7992 249.502 32.8059 249.415 32.8139 249.326C32.9531 247.593 33.2444 245.876 33.6847 244.193C34.6946 240.353 36.4198 236.737 38.77 233.534C41.1134 230.32 44.0677 227.598 47.4645 225.523C47.4893 225.509 47.5106 225.489 47.5267 225.466C47.5428 225.442 47.5533 225.415 47.5573 225.387C47.5638 225.35 47.5597 225.312 47.5453 225.277C47.531 225.242 47.507 225.212 47.4763 225.191C47.4455 225.169 47.4093 225.157 47.3717 225.155C47.3341 225.153 47.2967 225.162 47.264 225.18C47.2549 225.185 47.246 225.191 47.2375 225.197C45.313 226.368 43.5266 227.751 41.9119 229.32C39.0236 232.133 36.6946 235.465 35.0479 239.142C33.5952 242.362 32.7053 245.806 32.4169 249.326C32.409 249.415 32.4024 249.503 32.3958 249.591Z" fill="white"/>
<path d="M3.56166 229.527C3.56454 229.529 3.56769 229.53 3.57093 229.53C3.86162 229.583 4.15368 229.638 4.44307 229.698C6.81849 230.185 9.14379 230.89 11.3894 231.803C13.6291 232.716 15.7835 233.824 17.8273 235.115C19.8738 236.406 21.8036 237.873 23.5949 239.498C25.3861 241.121 27.0293 242.9 28.505 244.813C29.6079 246.247 30.6106 247.755 31.5062 249.326C31.5566 249.413 31.6058 249.502 31.6549 249.591H32.1102C32.0624 249.502 32.0133 249.413 31.9628 249.326C30.8794 247.401 29.637 245.569 28.2487 243.85C26.7135 241.948 25.0117 240.185 23.1634 238.584C21.327 236.992 19.356 235.561 17.2724 234.307C15.1802 233.049 12.9806 231.978 10.6991 231.106C8.48516 230.262 6.19939 229.618 3.86959 229.183C3.80458 229.171 3.74087 229.159 3.6758 229.147C3.42762 229.102 3.32139 229.475 3.56166 229.527Z" fill="white"/>
<path d="M11.4804 243.357C14.2534 242.977 17.0695 243.04 19.8225 243.545C22.5675 244.046 25.2175 244.971 27.6772 246.286C29.0595 247.027 30.3714 247.892 31.5969 248.871C31.7971 249.03 31.5137 249.31 31.3153 249.152C29.165 247.445 26.7545 246.092 24.1755 245.146C21.617 244.201 18.9276 243.657 16.2026 243.532C14.6607 243.461 13.1155 243.531 11.5863 243.741C11.5355 243.753 11.4819 243.745 11.4364 243.719C11.3909 243.694 11.357 243.652 11.3414 243.602C11.3277 243.551 11.3346 243.497 11.3606 243.451C11.3866 243.405 11.4297 243.372 11.4804 243.357Z" fill="white"/>
<path d="M136.846 135.658H58.5594C57.6358 135.659 56.7504 136.026 56.0973 136.677C55.4442 137.329 55.0767 138.213 55.0754 139.135V170.431C55.0767 171.353 55.4442 172.236 56.0973 172.888C56.7504 173.54 57.6358 173.907 58.5594 173.908H64.0928V185.158H64.2977C66.5255 185.156 68.6614 184.272 70.2366 182.699C71.8119 181.127 72.6979 178.995 72.7003 176.772V173.908H136.846C137.77 173.907 138.655 173.54 139.309 172.888C139.962 172.236 140.329 171.353 140.33 170.431V139.135C140.329 138.213 139.962 137.329 139.309 136.677C138.655 136.026 137.77 135.659 136.846 135.658ZM139.921 170.431C139.92 171.244 139.595 172.024 139.019 172.599C138.443 173.174 137.661 173.498 136.846 173.499H72.2904V176.772C72.2876 178.851 71.4725 180.848 70.0183 182.337C68.5641 183.826 66.5854 184.691 64.5027 184.747V173.499H58.5594C57.7444 173.498 56.9631 173.174 56.3868 172.599C55.8105 172.024 55.4863 171.244 55.4853 170.431V139.135C55.4863 138.321 55.8105 137.542 56.3868 136.966C56.9631 136.391 57.7444 136.068 58.5594 136.067H136.846C137.661 136.068 138.443 136.391 139.019 136.966C139.595 137.542 139.92 138.321 139.921 139.135V170.431Z" fill="#3F3D56"/>
<path d="M121.374 143.533H74.0324C73.3707 143.533 72.7348 143.789 72.258 144.247C71.7812 144.705 71.5005 145.329 71.4747 145.989C71.4713 146.023 71.4699 146.056 71.4706 146.09C71.4716 146.767 71.7418 147.417 72.222 147.896C72.7022 148.376 73.3533 148.645 74.0324 148.646H121.374C122.053 148.646 122.705 148.377 123.185 147.897C123.665 147.418 123.935 146.768 123.935 146.09C123.935 145.411 123.665 144.761 123.185 144.282C122.705 143.802 122.053 143.533 121.374 143.533Z" fill="#006400"/>
<path d="M121.374 152.124H74.0324C73.3707 152.124 72.7348 152.38 72.258 152.838C71.7812 153.296 71.5005 153.92 71.4747 154.58C71.4713 154.614 71.4699 154.647 71.4706 154.681C71.4716 155.358 71.7418 156.008 72.222 156.487C72.7022 156.967 73.3533 157.236 74.0324 157.237H121.374C122.053 157.237 122.705 156.968 123.185 156.489C123.665 156.009 123.935 155.359 123.935 154.681C123.935 154.002 123.665 153.352 123.185 152.873C122.705 152.393 122.053 152.124 121.374 152.124Z" fill="#006400"/>
<path d="M121.374 160.715H74.0324C73.3707 160.715 72.7348 160.971 72.258 161.429C71.7812 161.887 71.5005 162.511 71.4747 163.171C71.4713 163.205 71.4699 163.238 71.4706 163.272C71.4716 163.949 71.7418 164.599 72.222 165.078C72.7022 165.558 73.3533 165.827 74.0324 165.828H121.374C122.053 165.828 122.705 165.559 123.185 165.08C123.665 164.6 123.935 163.95 123.935 163.272C123.935 162.593 123.665 161.943 123.185 161.464C122.705 160.984 122.053 160.715 121.374 160.715Z" fill="#006400"/>
<path d="M46.0556 205.965C45.9633 205.965 45.8711 205.959 45.7796 205.948C45.4642 205.909 45.1606 205.804 44.8887 205.64C44.6167 205.477 44.3825 205.257 44.2014 204.997C44.0203 204.736 43.8963 204.44 43.8377 204.129C43.7792 203.817 43.7872 203.497 43.8614 203.188C43.8789 203.117 43.9002 203.046 43.925 202.977L37.0872 194.24C36.7862 193.852 36.6184 193.378 36.6088 192.887C36.5992 192.397 36.7483 191.916 37.0339 191.517L39.429 188.197L42.5596 190.608L41.3019 192.764L46.2825 201.478C46.3826 201.487 46.482 201.503 46.5799 201.526C47.1165 201.655 47.5872 201.975 47.9028 202.427C48.2184 202.879 48.3571 203.431 48.2925 203.978C48.2278 204.525 47.9645 205.029 47.5522 205.395C47.1399 205.762 46.6075 205.964 46.0556 205.965Z" fill="#A0616A"/>
<path d="M57.8888 247.365L60.4014 247.365L61.5966 237.692L57.8884 237.692L57.8888 247.365Z" fill="#A0616A"/>
<path d="M65.2468 249.693L57.3503 249.694L57.3502 246.648L62.1958 246.648C62.5964 246.648 62.9932 246.727 63.3633 246.88C63.7335 247.033 64.0698 247.257 64.3531 247.54C64.6365 247.823 64.8612 248.158 65.0145 248.528C65.1679 248.897 65.2468 249.293 65.2468 249.693Z" fill="#2F2E41"/>
<path d="M37.1899 247.365L39.7024 247.365L40.8976 237.692L37.1895 237.692L37.1899 247.365Z" fill="#A0616A"/>
<path d="M44.5479 249.693L36.6514 249.694L36.6512 246.648L41.4968 246.648C41.8975 246.648 42.2942 246.727 42.6643 246.88C43.0345 247.033 43.3708 247.257 43.6542 247.54C43.9375 247.823 44.1622 248.158 44.3156 248.528C44.4689 248.897 44.5478 249.293 44.5479 249.693Z" fill="#2F2E41"/>
<path d="M38.7319 188.668L44.3728 190.808L45.75 186.989C45.9329 186.482 45.9303 185.927 45.7427 185.422C45.5551 184.916 45.1946 184.494 44.7249 184.228C44.2498 183.959 43.694 183.869 43.1579 183.973C42.6219 184.078 42.141 184.37 41.802 184.798L38.7319 188.668Z" fill="#106322"/>
<path d="M57.442 239.557C57.2168 239.557 56.998 239.482 56.8202 239.344C56.6424 239.206 56.5156 239.013 56.4599 238.795C53.6469 228.054 50.7908 222.67 47.7281 216.445C47.6515 216.289 47.5273 216.162 47.3736 216.083C47.2198 216.003 47.0445 215.974 46.8732 216C46.7019 216.027 46.5434 216.107 46.4209 216.229C46.2985 216.352 46.2183 216.51 46.1921 216.681L42.3958 238.578C42.3579 238.822 42.2324 239.044 42.0425 239.203C41.8527 239.361 41.6115 239.446 41.3639 239.44L35.7278 239.303C35.591 239.3 35.4563 239.27 35.3317 239.214C35.207 239.157 35.0952 239.077 35.0028 238.976C34.9052 238.879 34.8306 238.762 34.7843 238.633C34.7381 238.504 34.7214 238.366 34.7356 238.23C37.2883 221.427 39.2982 206.218 43.1634 201.578C43.2705 201.477 43.3933 201.393 43.5271 201.331L43.4098 201.313C43.3763 201.308 43.287 201.294 43.2859 201.205L43.2848 201.118L43.373 201.102C43.5138 201.097 43.6542 201.118 43.7873 201.164L52.6088 202.519C52.8532 202.556 53.0755 202.681 53.2344 202.87C53.3933 203.059 53.4779 203.3 53.4724 203.546C53.952 205.786 54.6869 209.166 54.7527 209.332C59.4593 218.263 61.2856 225.296 63.1839 237.305C63.2232 237.559 63.1645 237.819 63.0196 238.032C62.8747 238.246 62.6543 238.396 62.4027 238.454L57.6718 239.531C57.5964 239.548 57.5193 239.557 57.442 239.557Z" fill="#2F2E41"/>
<path d="M52.4914 203.983C52.4123 203.983 52.3334 203.974 52.2564 203.955L43.5713 201.893C43.4382 201.862 43.3129 201.804 43.2031 201.723C43.0933 201.642 43.0013 201.539 42.9328 201.421C42.8622 201.299 42.817 201.164 42.7999 201.024C42.7829 200.884 42.7943 200.742 42.8336 200.606C43.7702 197.366 42.5421 193.348 41.0755 189.49C40.889 188.362 41.0717 187.203 41.5966 186.187C42.1215 185.17 42.9607 184.35 43.9896 183.847L44.0132 183.835L48.573 184.065C49.3218 184.261 50.0163 184.624 50.6043 185.126C51.1924 185.629 51.6587 186.257 51.9683 186.965C53.7258 191.071 54.229 196.339 53.5065 203.071C53.48 203.321 53.3616 203.553 53.1742 203.721C52.9868 203.889 52.7436 203.983 52.4914 203.983Z" fill="#006400"/>
<path d="M53.66 194.612C53.1964 194.613 52.744 194.469 52.3661 194.201L49.0022 191.808L51.4022 188.672L53.5688 189.917L62.275 184.904C62.2837 184.804 62.2994 184.705 62.3219 184.607C62.4239 184.174 62.6524 183.781 62.9784 183.477C63.3043 183.173 63.7132 182.973 64.1532 182.901C64.5933 182.83 65.0447 182.89 65.4505 183.074C65.8563 183.259 66.1982 183.559 66.433 183.937C66.6677 184.316 66.7848 184.755 66.7694 185.2C66.754 185.644 66.6068 186.075 66.3465 186.436C66.0861 186.797 65.7243 187.073 65.3067 187.229C64.8891 187.385 64.4346 187.414 64.0005 187.312C63.9287 187.295 63.8579 187.274 63.7882 187.25L55.0425 194.136C54.6483 194.445 54.1613 194.613 53.66 194.612Z" fill="#A0616A"/>
<path d="M47.9353 192.785L52.9253 189.398L50.5802 186.083C50.2688 185.643 49.8115 185.327 49.2892 185.19C48.7668 185.054 48.213 185.107 47.7257 185.338C47.2326 185.573 46.8399 185.976 46.6184 186.474C46.3968 186.972 46.3611 187.533 46.5177 188.055L47.9353 192.785Z" fill="#006400"/>
<path d="M45.535 182.136C48.3149 182.136 50.5685 179.886 50.5685 177.112C50.5685 174.337 48.3149 172.088 45.535 172.088C42.7551 172.088 40.5015 174.337 40.5015 177.112C40.5015 179.886 42.7551 182.136 45.535 182.136Z" fill="#A0616A"/>
<path d="M45.9963 182.252C45.2408 182.248 44.658 181.455 44.6919 180.701C44.7257 179.948 45.2326 179.285 45.8434 178.841C46.4541 178.397 47.1703 178.127 47.8514 177.801C48.5324 177.474 49.2075 177.067 49.628 176.441C49.8821 176.031 50.0337 175.566 50.0702 175.085C50.1067 174.604 50.027 174.122 49.8378 173.678C49.4464 172.791 48.7746 172.057 47.925 171.587C46.663 170.85 45.1691 170.614 43.7408 170.927C42.3125 171.24 41.0547 172.078 40.2178 173.275L39.3554 175.618C38.4767 176.673 38.3373 178.239 38.8775 179.501C39.4177 180.762 40.5678 181.711 41.8657 182.162C43.1825 182.585 44.5922 182.627 45.932 182.284" fill="#2F2E41"/>
<path d="M40.5575 174.73C40.2127 174.199 39.7423 173.761 39.1879 173.455C38.6335 173.148 38.0121 172.983 37.3784 172.972C36.7448 172.962 36.1184 173.108 35.5544 173.396C34.9904 173.685 34.5062 174.108 34.1445 174.627C33.539 175.496 33.3191 176.568 32.9028 177.542C32.1487 179.286 30.7773 180.692 29.0505 181.49C30.5625 181.756 32.0687 180.988 33.2774 180.043C34.4862 179.099 35.5492 177.946 36.9029 177.224C37.9679 176.657 39.1642 176.383 40.37 176.429" fill="#2F2E41"/>
<path d="M82.9253 250H4.84312C4.78877 250 4.73664 249.978 4.69821 249.94C4.65978 249.902 4.63818 249.85 4.63818 249.795C4.63818 249.741 4.65978 249.689 4.69821 249.651C4.73664 249.612 4.78877 249.591 4.84312 249.591H82.9253C82.9796 249.591 83.0317 249.612 83.0702 249.651C83.1086 249.689 83.1302 249.741 83.1302 249.795C83.1302 249.85 83.1086 249.902 83.0702 249.94C83.0317 249.978 82.9796 250 82.9253 250Z" fill="#3F3D56"/>
<path d="M180.909 184.135C187.587 184.135 193 178.732 193 172.067C193 165.402 187.587 159.999 180.909 159.999C174.231 159.999 168.817 165.402 168.817 172.067C168.817 178.732 174.231 184.135 180.909 184.135Z" fill="#E6E6E6"/>
<path d="M182.062 180.669C181.569 180.655 180.956 180.638 180.484 180.294C180.344 180.187 180.228 180.051 180.146 179.895C180.064 179.739 180.016 179.567 180.008 179.391C179.999 179.266 180.02 179.141 180.068 179.025C180.116 178.909 180.19 178.806 180.285 178.723C180.425 178.618 180.59 178.55 180.764 178.526C180.938 178.501 181.115 178.519 181.279 178.58L180.877 175.648L181.173 175.608L181.645 179.055L181.399 178.942C181.113 178.811 180.721 178.745 180.477 178.95C180.417 179.004 180.371 179.071 180.341 179.145C180.311 179.22 180.299 179.301 180.305 179.381C180.313 179.512 180.348 179.64 180.409 179.756C180.47 179.872 180.556 179.974 180.66 180.054C181.027 180.322 181.516 180.356 182.07 180.372L182.062 180.669Z" fill="#3F3D56"/>
<path d="M179.418 175.901H177.813V176.198H179.418V175.901Z" fill="#3F3D56"/>
<path d="M184.482 175.901H182.878V176.198H184.482V175.901Z" fill="#3F3D56"/>
<path d="M175.026 171.795C173.734 171.648 172.734 170.413 172.624 169.159C172.493 167.668 173.363 166.251 174.557 165.414C175.805 164.539 177.361 164.174 178.866 164.093C181.802 163.948 184.687 164.897 186.961 166.756C188.088 167.691 189.142 168.882 189.541 170.32C189.887 171.569 189.605 172.985 188.599 173.859C188.35 174.074 188.059 174.234 187.745 174.331C187.43 174.428 187.099 174.458 186.773 174.421C185.992 174.34 185.271 173.93 184.647 173.477C183.434 172.596 182.438 171.37 180.959 170.91C179.875 170.572 178.469 170.869 177.806 171.848C177.656 172.072 177.559 172.327 177.521 172.594C177.508 172.651 177.516 172.711 177.545 172.762C177.574 172.812 177.621 172.851 177.678 172.868C177.735 172.883 177.796 172.876 177.847 172.846C177.898 172.817 177.936 172.769 177.952 172.712C178.126 171.48 179.644 171.02 180.71 171.302C182.263 171.712 183.306 173.095 184.58 173.974C185.24 174.465 186.017 174.775 186.834 174.872C187.542 174.928 188.245 174.712 188.8 174.269C189.889 173.411 190.305 171.935 190.065 170.607C189.786 169.068 188.748 167.749 187.61 166.728C185.302 164.68 182.305 163.575 179.218 163.634C177.643 163.67 176 163.995 174.643 164.825C173.327 165.631 172.31 166.979 172.177 168.547C172.06 169.926 172.801 171.369 174.074 171.973C174.374 172.115 174.696 172.206 175.026 172.241C175.311 172.274 175.309 171.827 175.026 171.795Z" fill="#3F3D56"/>
</g>
<g clip-path="url(#clip2_14_2)">
<rect width="234" height="143.457" transform="matrix(-1 0 0 1 1024 107)" fill="white"/>
<path d="M899.833 214.262C900.334 217.295 902.975 219.618 906.149 219.618C909.322 219.618 911.966 217.295 912.464 214.262H928.626V249.276H883.671V214.262L899.833 214.262Z" fill="#D9D9D9"/>
<path d="M923.401 249.146H927.844V249.93H923.401V249.146Z" fill="#B6B3C5"/>
<path d="M884.065 249.276H888.508V250.061H884.065V249.276Z" fill="#B6B3C5"/>
<path d="M815.739 215.177H996.558C997.941 215.177 999.066 214.052 999.066 212.67V109.507C999.066 108.125 997.941 107 996.558 107H815.739C814.356 107 813.231 108.125 813.231 109.507V212.672C813.231 214.055 814.356 215.179 815.739 215.179L815.739 215.177Z" fill="#2F2E41"/>
<path d="M817.547 111.442H994.492V211.256H817.547V111.442Z" fill="white"/>
<path d="M1024 250.199C1024 250.341 1023.89 250.457 1023.74 250.457H790.258C790.116 250.457 790 250.344 790 250.199C790 250.055 790.113 249.942 790.258 249.942H1023.74C1023.88 249.942 1024 250.055 1024 250.199Z" fill="#2F2E43"/>
<path d="M849.43 153.117H893.49C894.703 153.117 895.686 154.099 895.686 155.312V155.312C895.686 156.524 894.703 157.507 893.49 157.507H849.43C848.217 157.507 847.234 156.524 847.234 155.312C847.234 154.099 848.217 153.117 849.43 153.117Z" fill="#106322"/>
<path d="M849.43 170.962H883.998C885.211 170.962 886.194 171.945 886.194 173.158V173.158C886.194 174.37 885.211 175.353 883.998 175.353H849.43C848.217 175.353 847.234 174.37 847.234 173.158C847.234 171.945 848.217 170.962 849.43 170.962Z" fill="#106322"/>
<path d="M849.43 182.576H855.947C857.16 182.576 858.143 183.559 858.143 184.772V184.772C858.143 185.984 857.16 186.967 855.947 186.967H849.43C848.217 186.967 847.234 185.984 847.234 184.772V184.772C847.234 183.559 848.217 182.576 849.43 182.576Z" fill="#106322"/>
<path d="M917.291 165.297H950.159C951.372 165.297 952.355 166.28 952.355 167.492V167.492C952.355 168.705 951.372 169.688 950.159 169.688H917.291C916.078 169.688 915.095 168.705 915.095 167.492C915.095 166.28 916.078 165.297 917.291 165.297Z" fill="#CACACB"/>
<path d="M940.525 176.628H950.159C951.372 176.628 952.355 177.611 952.355 178.823V178.823C952.355 180.035 951.372 181.018 950.159 181.018H940.525C939.313 181.018 938.329 180.035 938.329 178.823C938.329 177.611 939.313 176.628 940.525 176.628Z" fill="#CACACB"/>
<path d="M849.43 159.348H880.881C882.094 159.348 883.077 160.331 883.077 161.544V161.544C883.077 162.756 882.094 163.739 880.881 163.739H849.43C848.217 163.739 847.234 162.756 847.234 161.544C847.234 160.331 848.217 159.348 849.43 159.348Z" fill="#106322"/>
<path d="M954.905 138.387H844.684" stroke="black" stroke-width="2.35176" stroke-miterlimit="10"/>
<path d="M951.363 134.563H927.203" stroke="black" stroke-width="2.35176" stroke-miterlimit="10"/>
<path d="M986.058 182.619L987.991 190.254L974.647 190.089L976.174 183.113L986.058 182.619Z" fill="#EC9C9F"/>
<path d="M988.527 208.703L991.424 221.375L996.756 246.745L994.285 247.239L977.3 209.427L988.527 208.703Z" fill="#EC9C9F"/>
<path d="M982.948 211.589L977.597 223.436L969.738 247.239L966.443 246.416L973.566 205.384L982.948 211.589Z" fill="#EC9C9F"/>
<path d="M987.241 187.11C987.241 187.11 993.199 197.598 992.112 209.184C992.112 209.184 983.329 215.833 969.219 209.678L975.027 186.507L987.241 187.11Z" fill="#090814"/>
<path d="M997.169 249.77C997.452 249.538 997.606 249.278 997.624 248.998C997.645 248.679 997.487 248.336 997.154 247.979C997.146 247.876 997.043 246.604 996.813 246.377C996.832 246.308 996.95 245.857 996.758 245.564C996.667 245.426 996.521 245.345 996.324 245.325L996.316 245.324L996.311 245.331C996.306 245.341 995.746 246.325 994.904 246.412C994.422 246.461 993.938 246.21 993.468 245.665C993.451 245.624 993.318 244.96 993.233 244.52L993.229 244.503L988.642 246.943L985.961 247.694C985.624 247.788 985.389 248.101 985.389 248.455C985.389 248.757 985.563 249.037 985.831 249.167L987.131 249.8C987.674 250.064 988.279 250.204 988.882 250.204H995.931C996.388 250.204 996.828 250.05 997.169 249.77Z" fill="#090814"/>
<path d="M970.974 249.77C971.258 249.538 971.411 249.278 971.43 248.998C971.45 248.679 971.292 248.336 970.96 247.979C970.952 247.876 970.849 246.604 970.619 246.377C970.638 246.308 970.755 245.857 970.563 245.564C970.473 245.426 970.327 245.345 970.13 245.325L970.121 245.324L970.117 245.331C970.111 245.341 969.552 246.325 968.71 246.412C968.227 246.461 967.744 246.21 967.274 245.665C967.257 245.624 967.124 244.96 967.038 244.52L967.035 244.503L962.448 246.943L959.767 247.694C959.43 247.788 959.195 248.101 959.195 248.455C959.195 248.757 959.368 249.037 959.637 249.167L960.936 249.8C961.48 250.064 962.085 250.204 962.688 250.204H969.737C970.194 250.204 970.633 250.05 970.974 249.77Z" fill="#090814"/>
<path d="M984.141 158.927C984.141 155.955 981.731 153.546 978.758 153.546C975.786 153.546 973.376 155.955 973.376 158.927C973.376 161.337 974.961 163.377 977.146 164.062L978.186 170.937L983.491 166.518C983.491 166.518 982.345 165.058 981.73 163.413C983.183 162.449 984.141 160.801 984.141 158.927Z" fill="#EC9C9F"/>
<path d="M983.996 164.239L977.656 168.29L974.73 173.456C973.883 174.952 973.597 176.701 973.923 178.389L975.268 185.342H989.285L987.07 170.835C986.787 168.984 986.082 167.222 985.008 165.687L983.996 164.239Z" fill="#106322"/>
<path d="M985.869 165.997C985.869 165.997 985.617 167.903 983.289 167.966C980.14 168.05 978.565 168.092 978.565 168.092C978.565 168.092 982.558 158.377 980.916 159.471C979.274 160.566 974.896 155.977 974.896 155.977L973.604 158.4C973.604 158.4 970.518 157.282 973.938 154.546C973.938 154.546 978.02 151.392 982.352 153.286C986.685 155.18 985.869 165.997 985.869 165.997Z" fill="#090814"/>
<path d="M956.747 204.246H1004.07V214.727H956.747V204.246Z" fill="#CACACB"/>
<path d="M998.385 212.427C996.664 212.427 995.269 211.032 995.269 209.311C995.269 207.59 996.664 206.195 998.385 206.195C1000.11 206.195 1001.5 207.59 1001.5 209.311C1001.5 211.032 1000.11 212.427 998.385 212.427Z" stroke="black" stroke-width="2.35176" stroke-miterlimit="10"/>
<path d="M994.135 206.761H975.642" stroke="black" stroke-width="2.35176" stroke-miterlimit="10"/>
<path d="M994.135 209.311H961.87" stroke="black" stroke-width="2.35176" stroke-miterlimit="10"/>
<path d="M994.135 211.383H959.115" stroke="black" stroke-width="2.35176" stroke-miterlimit="10"/>
<path d="M982.911 200.518L983.024 195.303L979.979 195.237L979.866 200.452C979.297 200.979 978.922 201.799 978.902 202.728C978.867 204.353 979.929 205.695 981.275 205.724C982.62 205.753 983.74 204.459 983.775 202.833C983.795 201.904 983.456 201.069 982.911 200.518Z" fill="#EC9C9F"/>
<path d="M978.707 174.418V199.694H983.996L985.559 174.632" fill="#106322"/>
</g>
<rect x="305" y="238" width="20" height="12" fill="#0C541B"/>
<rect x="29" width="20" height="12" fill="#0C541B"/>
<rect x="738" y="242" width="20" height="12" fill="#0C541B"/>
</g>
<defs>
<clipPath id="clip0_14_2">
<rect width="1024" height="250" fill="white"/>
</clipPath>
<clipPath id="clip1_14_2">
<rect width="193" height="140.729" fill="white" transform="translate(0 109.271)"/>
</clipPath>
<clipPath id="clip2_14_2">
<rect width="234" height="143.457" fill="white" transform="matrix(-1 0 0 1 1024 107)"/>
</clipPath>
</defs>
</svg>
