<?xml version="1.0" encoding="utf-8" standalone="yes"?> <svg width="285" height="285" viewBox="-1 -1 95 95" xmlns="http://www.w3.org/2000/svg" xmlns:xlink="http://www.w3.org/1999/xlink" shape-rendering="crispEdges" id="qr code"><rect id="qr background" fill-opacity="1" fill="rgb(255, 255, 255)" x="-1" y="-1" width="95" height="95"></rect><path fill-opacity="1" fill="rgb(0, 0, 0)" id="qr dark pixels" fill-rule="evenodd" d="M 9 0 L 14 0 L 14 1 L 15 1 L 15 2 L 14 2 L 14 3 L 13 3 L 13 2 L 12 2 L 12 1 L 11 1 L 11 2 L 8 2 L 8 1 L 9 1 z M 17 0 L 19 0 L 19 2 L 18 2 L 18 1 L 17 1 z M 20 0 L 21 0 L 21 1 L 20 1 z M 22 0 L 23 0 L 23 1 L 22 1 z M 24 0 L 29 0 L 29 2 L 27 2 L 27 1 L 25 1 L 25 2 L 23 2 L 23 1 L 24 1 z M 31 0 L 32 0 L 32 1 L 31 1 z M 36 0 L 38 0 L 38 1 L 37 1 L 37 2 L 35 2 L 35 4 L 36 4 L 36 3 L 37 3 L 37 4 L 38 4 L 38 5 L 37 5 L 37 7 L 36 7 L 36 6 L 35 6 L 35 5 L 34 5 L 34 4 L 33 4 L 33 5 L 34 5 L 34 6 L 33 6 L 33 9 L 30 9 L 30 11 L 29 11 L 29 10 L 28 10 L 28 6 L 27 6 L 27 5 L 24 5 L 24 4 L 29 4 L 29 2 L 30 2 L 30 1 L 31 1 L 31 4 L 32 4 L 32 3 L 34 3 L 34 2 L 33 2 L 33 1 L 36 1 zM 29 5 L 32 5 L 32 8 L 29 8 z M 39 0 L 40 0 L 40 2 L 41 2 L 41 3 L 37 3 L 37 2 L 38 2 L 38 1 L 39 1 z M 41 0 L 45 0 L 45 1 L 47 1 L 47 2 L 45 2 L 45 4 L 46 4 L 46 5 L 48 5 L 48 6 L 47 6 L 47 7 L 46 7 L 46 6 L 45 6 L 45 7 L 46 7 L 46 8 L 44 8 L 44 6 L 43 6 L 43 5 L 44 5 L 44 4 L 43 4 L 43 3 L 44 3 L 44 2 L 43 2 L 43 1 L 42 1 L 42 2 L 41 2 z M 47 0 L 48 0 L 48 1 L 47 1 z M 50 0 L 51 0 L 51 1 L 50 1 z M 52 0 L 53 0 L 53 3 L 48 3 L 48 1 L 50 1 L 50 2 L 52 2 z M 54 0 L 57 0 L 57 1 L 54 1 z M 58 0 L 59 0 L 59 1 L 58 1 z M 64 0 L 65 0 L 65 1 L 64 1 z M 69 0 L 71 0 L 71 1 L 69 1 z M 74 0 L 75 0 L 75 1 L 74 1 z M 80 0 L 82 0 L 82 4 L 80 4 L 80 3 L 81 3 L 81 1 L 80 1 z M 83 0 L 84 0 L 84 1 L 85 1 L 85 3 L 84 3 L 84 2 L 83 2 z M 57 1 L 58 1 L 58 2 L 57 2 z M 60 1 L 63 1 L 63 2 L 62 2 L 62 3 L 61 3 L 61 5 L 62 5 L 62 6 L 61 6 L 61 9 L 62 9 L 62 10 L 60 10 L 60 9 L 59 9 L 59 10 L 58 10 L 58 9 L 57 9 L 57 10 L 56 10 L 56 8 L 55 8 L 55 10 L 53 10 L 53 9 L 54 9 L 54 8 L 52 8 L 52 10 L 51 10 L 51 9 L 50 9 L 50 10 L 51 10 L 51 11 L 48 11 L 48 9 L 47 9 L 47 8 L 49 8 L 49 7 L 50 7 L 50 5 L 51 5 L 51 7 L 52 7 L 52 6 L 53 6 L 53 7 L 54 7 L 54 6 L 55 6 L 55 7 L 56 7 L 56 5 L 54 5 L 54 6 L 53 6 L 53 3 L 55 3 L 55 4 L 57 4 L 57 3 L 59 3 L 59 2 L 60 2 zM 57 5 L 60 5 L 60 8 L 57 8 z M 73 1 L 74 1 L 74 2 L 73 2 z M 75 1 L 78 1 L 78 2 L 80 2 L 80 3 L 78 3 L 78 4 L 77 4 L 77 3 L 76 3 L 76 2 L 75 2 z M 11 2 L 12 2 L 12 3 L 11 3 z M 16 2 L 17 2 L 17 3 L 16 3 z M 19 2 L 20 2 L 20 3 L 19 3 z M 22 2 L 23 2 L 23 3 L 22 3 z M 26 2 L 27 2 L 27 3 L 26 3 z M 56 2 L 57 2 L 57 3 L 56 3 z M 64 2 L 65 2 L 65 3 L 64 3 z M 67 2 L 70 2 L 70 3 L 71 3 L 71 5 L 68 5 L 68 3 L 67 3 z M 71 2 L 72 2 L 72 3 L 71 3 z M 8 3 L 10 3 L 10 4 L 8 4 z M 12 3 L 13 3 L 13 4 L 12 4 z M 15 3 L 16 3 L 16 4 L 17 4 L 17 7 L 16 7 L 16 6 L 15 6 L 15 7 L 14 7 L 14 5 L 13 5 L 13 4 L 15 4 z M 17 3 L 18 3 L 18 4 L 17 4 z M 23 3 L 24 3 L 24 4 L 23 4 z M 47 3 L 48 3 L 48 4 L 47 4 z M 63 3 L 64 3 L 64 4 L 63 4 z M 66 3 L 67 3 L 67 5 L 66 5 z M 75 3 L 76 3 L 76 5 L 75 5 z M 83 3 L 84 3 L 84 6 L 83 6 L 83 5 L 82 5 L 82 4 L 83 4 z M 20 4 L 23 4 L 23 5 L 22 5 L 22 6 L 21 6 L 21 7 L 22 7 L 22 6 L 23 6 L 23 8 L 22 8 L 22 9 L 21 9 L 21 8 L 20 8 L 20 9 L 19 9 L 19 7 L 20 7 L 20 6 L 19 6 L 19 7 L 18 7 L 18 5 L 20 5 z M 41 4 L 43 4 L 43 5 L 42 5 L 42 6 L 41 6 z M 62 4 L 63 4 L 63 5 L 62 5 z M 72 4 L 73 4 L 73 5 L 72 5 z M 79 4 L 80 4 L 80 5 L 79 5 z M 8 5 L 9 5 L 9 7 L 8 7 z M 10 5 L 13 5 L 13 7 L 12 7 L 12 6 L 11 6 L 11 7 L 10 7 z M 38 5 L 39 5 L 39 8 L 40 8 L 40 9 L 38 9 L 38 10 L 40 10 L 40 11 L 41 11 L 41 12 L 39 12 L 39 11 L 36 11 L 36 12 L 37 12 L 37 13 L 36 13 L 36 16 L 38 16 L 38 14 L 40 14 L 40 15 L 41 15 L 41 12 L 42 12 L 42 11 L 41 11 L 41 10 L 42 10 L 42 9 L 41 9 L 41 8 L 42 8 L 42 6 L 43 6 L 43 8 L 44 8 L 44 9 L 43 9 L 43 10 L 44 10 L 44 11 L 43 11 L 43 12 L 44 12 L 44 13 L 45 13 L 45 14 L 42 14 L 42 17 L 43 17 L 43 16 L 44 16 L 44 17 L 45 17 L 45 18 L 44 18 L 44 19 L 43 19 L 43 18 L 41 18 L 41 16 L 40 16 L 40 18 L 39 18 L 39 17 L 38 17 L 38 18 L 37 18 L 37 19 L 36 19 L 36 17 L 35 17 L 35 15 L 33 15 L 33 14 L 35 14 L 35 13 L 34 13 L 34 12 L 35 12 L 35 11 L 33 11 L 33 9 L 34 9 L 34 10 L 35 10 L 35 9 L 34 9 L 34 8 L 37 8 L 37 7 L 38 7 zM 36 9 L 37 9 L 37 10 L 36 10 z M 63 5 L 66 5 L 66 6 L 65 6 L 65 7 L 66 7 L 66 6 L 67 6 L 67 7 L 68 7 L 68 6 L 69 6 L 69 8 L 66 8 L 66 9 L 64 9 L 64 11 L 63 11 L 63 8 L 64 8 L 64 6 L 63 6 z M 73 5 L 75 5 L 75 7 L 74 7 L 74 6 L 73 6 z M 77 5 L 78 5 L 78 6 L 77 6 z M 24 6 L 25 6 L 25 7 L 24 7 z M 26 6 L 27 6 L 27 7 L 26 7 z M 30 6 L 31 6 L 31 7 L 30 7 z M 34 6 L 35 6 L 35 7 L 34 7 z M 40 6 L 41 6 L 41 7 L 40 7 z M 48 6 L 49 6 L 49 7 L 48 7 z M 58 6 L 59 6 L 59 7 L 58 7 z M 62 6 L 63 6 L 63 7 L 62 7 z M 70 6 L 71 6 L 71 7 L 70 7 z M 72 6 L 73 6 L 73 7 L 72 7 z M 76 6 L 77 6 L 77 8 L 76 8 z M 78 6 L 79 6 L 79 7 L 78 7 z M 80 6 L 81 6 L 81 7 L 82 7 L 82 8 L 79 8 L 79 7 L 80 7 z M 82 6 L 83 6 L 83 7 L 82 7 z M 84 6 L 85 6 L 85 8 L 86 8 L 86 10 L 84 10 L 84 9 L 83 9 L 83 7 L 84 7 z M 9 7 L 10 7 L 10 10 L 9 10 L 9 9 L 8 9 L 8 10 L 7 10 L 7 9 L 6 9 L 6 8 L 9 8 z M 13 7 L 14 7 L 14 8 L 15 8 L 15 10 L 17 10 L 17 12 L 21 12 L 21 13 L 16 13 L 16 12 L 15 12 L 15 11 L 14 11 L 14 12 L 13 12 L 13 13 L 12 13 L 12 12 L 11 12 L 11 11 L 10 11 L 10 10 L 12 10 L 12 11 L 13 11 z M 15 7 L 16 7 L 16 8 L 15 8 z M 71 7 L 72 7 L 72 8 L 71 8 z M 73 7 L 74 7 L 74 9 L 73 9 z M 0 8 L 5 8 L 5 9 L 4 9 L 4 10 L 3 10 L 3 9 L 0 9 z M 17 8 L 18 8 L 18 9 L 17 9 z M 23 8 L 24 8 L 24 9 L 23 9 z M 69 8 L 70 8 L 70 9 L 72 9 L 72 10 L 73 10 L 73 11 L 72 11 L 72 12 L 71 12 L 71 10 L 68 10 L 68 9 L 69 9 z M 75 8 L 76 8 L 76 10 L 75 10 z M 78 8 L 79 8 L 79 10 L 78 10 z M 87 8 L 88 8 L 88 9 L 87 9 z M 89 8 L 90 8 L 90 9 L 89 9 z M 91 8 L 92 8 L 92 9 L 91 9 z M 18 9 L 19 9 L 19 10 L 18 10 z M 22 9 L 23 9 L 23 12 L 24 12 L 24 13 L 22 13 z M 25 9 L 27 9 L 27 10 L 28 10 L 28 11 L 29 11 L 29 12 L 28 12 L 28 14 L 24 14 L 24 13 L 27 13 L 27 11 L 26 11 L 26 10 L 25 10 z M 81 9 L 83 9 L 83 10 L 84 10 L 84 13 L 83 13 L 83 15 L 84 15 L 84 14 L 85 14 L 85 12 L 86 12 L 86 15 L 87 15 L 87 16 L 84 16 L 84 17 L 82 17 L 82 18 L 81 18 L 81 16 L 78 16 L 78 15 L 77 15 L 77 16 L 76 16 L 76 14 L 79 14 L 79 15 L 82 15 L 82 14 L 81 14 L 81 13 L 82 13 L 82 12 L 83 12 L 83 11 L 82 11 L 82 10 L 81 10 z M 90 9 L 91 9 L 91 11 L 90 11 z M 0 10 L 3 10 L 3 12 L 2 12 L 2 13 L 3 13 L 3 14 L 1 14 L 1 15 L 4 15 L 4 13 L 5 13 L 5 16 L 7 16 L 7 15 L 6 15 L 6 14 L 7 14 L 7 13 L 5 13 L 5 12 L 7 12 L 7 11 L 8 11 L 8 10 L 9 10 L 9 11 L 10 11 L 10 12 L 11 12 L 11 13 L 12 13 L 12 14 L 14 14 L 14 16 L 15 16 L 15 17 L 16 17 L 16 18 L 15 18 L 15 23 L 16 23 L 16 25 L 15 25 L 15 24 L 14 24 L 14 25 L 15 25 L 15 26 L 17 26 L 17 24 L 18 24 L 18 23 L 20 23 L 20 25 L 18 25 L 18 26 L 19 26 L 19 27 L 16 27 L 16 30 L 15 30 L 15 32 L 14 32 L 14 31 L 13 31 L 13 30 L 14 30 L 14 28 L 15 28 L 15 27 L 14 27 L 14 26 L 13 26 L 13 28 L 12 28 L 12 25 L 13 25 L 13 22 L 14 22 L 14 20 L 13 20 L 13 19 L 14 19 L 14 17 L 13 17 L 13 15 L 11 15 L 11 16 L 10 16 L 10 18 L 9 18 L 9 17 L 8 17 L 8 18 L 7 18 L 7 17 L 6 17 L 6 18 L 7 18 L 7 19 L 5 19 L 5 18 L 3 18 L 3 17 L 4 17 L 4 16 L 3 16 L 3 17 L 2 17 L 2 18 L 3 18 L 3 19 L 5 19 L 5 20 L 7 20 L 7 21 L 6 21 L 6 22 L 5 22 L 5 21 L 3 21 L 3 22 L 2 22 L 2 20 L 1 20 L 1 19 L 0 19 zM 9 13 L 10 13 L 10 14 L 9 14 z M 8 14 L 9 14 L 9 16 L 8 16 z M 4 10 L 5 10 L 5 12 L 4 12 z M 6 10 L 7 10 L 7 11 L 6 11 z M 19 10 L 21 10 L 21 11 L 19 11 z M 31 10 L 32 10 L 32 12 L 33 12 L 33 13 L 32 13 L 32 17 L 29 17 L 29 16 L 30 16 L 30 13 L 31 13 z M 45 10 L 47 10 L 47 11 L 46 11 L 46 12 L 50 12 L 50 14 L 53 14 L 53 16 L 51 16 L 51 17 L 50 17 L 50 16 L 49 16 L 49 17 L 47 17 L 47 16 L 48 16 L 48 15 L 47 15 L 47 16 L 44 16 L 44 15 L 46 15 L 46 14 L 48 14 L 48 13 L 45 13 L 45 12 L 44 12 L 44 11 L 45 11 z M 55 10 L 56 10 L 56 11 L 55 11 z M 57 10 L 58 10 L 58 13 L 57 13 z M 59 10 L 60 10 L 60 11 L 59 11 z M 66 10 L 67 10 L 67 11 L 69 11 L 69 13 L 68 13 L 68 12 L 67 12 L 67 14 L 66 14 L 66 13 L 65 13 L 65 12 L 64 12 L 64 11 L 66 11 z M 80 10 L 81 10 L 81 13 L 80 13 L 80 12 L 78 12 L 78 11 L 80 11 z M 87 10 L 89 10 L 89 11 L 87 11 z M 92 10 L 93 10 L 93 11 L 92 11 z M 51 11 L 55 11 L 55 12 L 51 12 z M 60 11 L 61 11 L 61 12 L 60 12 z M 62 11 L 63 11 L 63 12 L 62 12 z M 76 11 L 77 11 L 77 13 L 76 13 L 76 14 L 75 14 L 75 13 L 74 13 L 74 12 L 76 12 z M 86 11 L 87 11 L 87 12 L 86 12 z M 14 12 L 15 12 L 15 13 L 14 13 z M 29 12 L 30 12 L 30 13 L 29 13 z M 59 12 L 60 12 L 60 13 L 59 13 z M 63 12 L 64 12 L 64 14 L 63 14 z M 70 12 L 71 12 L 71 13 L 70 13 z M 89 12 L 93 12 L 93 14 L 92 14 L 92 13 L 90 13 L 90 14 L 89 14 z M 21 13 L 22 13 L 22 14 L 24 14 L 24 16 L 23 16 L 23 15 L 21 15 L 21 16 L 23 16 L 23 17 L 24 17 L 24 16 L 25 16 L 25 17 L 26 17 L 26 16 L 27 16 L 27 15 L 28 15 L 28 18 L 26 18 L 26 19 L 31 19 L 31 21 L 30 21 L 30 22 L 31 22 L 31 23 L 30 23 L 30 24 L 29 24 L 29 27 L 28 27 L 28 26 L 26 26 L 26 27 L 24 27 L 24 26 L 25 26 L 25 25 L 27 25 L 27 23 L 29 23 L 29 20 L 28 20 L 28 21 L 27 21 L 27 20 L 26 20 L 26 21 L 25 21 L 25 19 L 24 19 L 24 18 L 22 18 L 22 17 L 21 17 L 21 18 L 22 18 L 22 21 L 21 21 L 21 22 L 16 22 L 16 21 L 18 21 L 18 20 L 19 20 L 19 21 L 20 21 L 20 20 L 19 20 L 19 19 L 20 19 L 20 16 L 18 16 L 18 15 L 17 15 L 17 14 L 21 14 z M 37 13 L 38 13 L 38 14 L 37 14 z M 53 13 L 55 13 L 55 14 L 53 14 z M 56 13 L 57 13 L 57 14 L 56 14 z M 58 13 L 59 13 L 59 14 L 58 14 z M 60 13 L 61 13 L 61 14 L 63 14 L 63 15 L 62 15 L 62 16 L 60 16 L 60 15 L 59 15 L 59 14 L 60 14 z M 69 13 L 70 13 L 70 14 L 69 14 z M 72 13 L 73 13 L 73 14 L 75 14 L 75 15 L 74 15 L 74 16 L 76 16 L 76 20 L 78 20 L 78 19 L 80 19 L 80 20 L 79 20 L 79 21 L 80 21 L 80 20 L 82 20 L 82 21 L 83 21 L 83 23 L 82 23 L 82 22 L 80 22 L 80 23 L 82 23 L 82 24 L 79 24 L 79 22 L 78 22 L 78 21 L 76 21 L 76 23 L 75 23 L 75 24 L 76 24 L 76 25 L 75 25 L 75 27 L 73 27 L 73 26 L 74 26 L 74 23 L 72 23 L 72 22 L 74 22 L 74 19 L 73 19 L 73 18 L 75 18 L 75 17 L 72 17 L 72 16 L 71 16 L 71 15 L 72 15 z M 87 13 L 88 13 L 88 14 L 89 14 L 89 15 L 87 15 z M 15 14 L 16 14 L 16 15 L 17 15 L 17 16 L 15 16 z M 28 14 L 29 14 L 29 15 L 28 15 z M 55 14 L 56 14 L 56 15 L 55 15 z M 57 14 L 58 14 L 58 15 L 59 15 L 59 16 L 58 16 L 58 17 L 57 17 L 57 18 L 56 18 L 56 20 L 55 20 L 55 22 L 54 22 L 54 21 L 53 21 L 53 20 L 54 20 L 54 19 L 55 19 L 55 18 L 53 18 L 53 16 L 55 16 L 55 17 L 56 17 L 56 16 L 57 16 z M 90 14 L 92 14 L 92 15 L 91 15 L 91 16 L 90 16 z M 25 15 L 26 15 L 26 16 L 25 16 z M 59 16 L 60 16 L 60 17 L 59 17 z M 63 16 L 65 16 L 65 18 L 66 18 L 66 20 L 64 20 L 64 19 L 61 19 L 61 20 L 60 20 L 60 19 L 59 19 L 59 18 L 60 18 L 60 17 L 61 17 L 61 18 L 62 18 L 62 17 L 63 17 z M 68 16 L 69 16 L 69 17 L 70 17 L 70 18 L 68 18 L 68 19 L 67 19 L 67 18 L 66 18 L 66 17 L 68 17 z M 70 16 L 71 16 L 71 17 L 70 17 z M 92 16 L 93 16 L 93 18 L 92 18 z M 11 17 L 12 17 L 12 18 L 11 18 z M 17 17 L 19 17 L 19 18 L 17 18 z M 32 17 L 33 17 L 33 18 L 32 18 z M 49 17 L 50 17 L 50 18 L 49 18 z M 51 17 L 52 17 L 52 18 L 51 18 z M 58 17 L 59 17 L 59 18 L 58 18 z M 71 17 L 72 17 L 72 20 L 71 20 z M 79 17 L 80 17 L 80 18 L 79 18 z M 85 17 L 86 17 L 86 19 L 85 19 z M 87 17 L 91 17 L 91 18 L 92 18 L 92 21 L 91 21 L 91 20 L 90 20 L 90 22 L 88 22 L 88 24 L 90 24 L 90 25 L 88 25 L 88 26 L 90 26 L 90 25 L 91 25 L 91 23 L 92 23 L 92 22 L 93 22 L 93 26 L 92 26 L 92 27 L 93 27 L 93 30 L 92 30 L 92 29 L 91 29 L 91 28 L 89 28 L 89 27 L 87 27 L 87 22 L 86 22 L 86 19 L 87 19 L 87 20 L 88 20 L 88 21 L 89 21 L 89 19 L 87 19 z M 8 18 L 9 18 L 9 20 L 10 20 L 10 21 L 9 21 L 9 22 L 7 22 L 7 21 L 8 21 z M 16 18 L 17 18 L 17 19 L 18 19 L 18 20 L 16 20 z M 34 18 L 35 18 L 35 19 L 34 19 z M 38 18 L 39 18 L 39 19 L 40 19 L 40 18 L 41 18 L 41 19 L 43 19 L 43 20 L 45 20 L 45 22 L 47 22 L 47 23 L 46 23 L 46 24 L 44 24 L 44 23 L 43 23 L 43 22 L 44 22 L 44 21 L 43 21 L 43 22 L 42 22 L 42 21 L 41 21 L 41 20 L 39 20 L 39 22 L 37 22 L 37 21 L 38 21 L 38 20 L 37 20 L 37 19 L 38 19 z M 45 18 L 47 18 L 47 20 L 46 20 L 46 19 L 45 19 z M 50 18 L 51 18 L 51 19 L 50 19 z M 52 18 L 53 18 L 53 20 L 51 20 L 51 19 L 52 19 z M 57 18 L 58 18 L 58 19 L 59 19 L 59 21 L 57 21 z M 77 18 L 78 18 L 78 19 L 77 19 z M 82 18 L 84 18 L 84 19 L 83 19 L 83 20 L 82 20 z M 11 19 L 12 19 L 12 20 L 11 20 z M 69 19 L 70 19 L 70 20 L 71 20 L 71 22 L 69 22 z M 23 20 L 24 20 L 24 21 L 23 21 z M 32 20 L 33 20 L 33 21 L 32 21 z M 35 20 L 37 20 L 37 21 L 35 21 z M 47 20 L 49 20 L 49 21 L 50 21 L 50 22 L 49 22 L 49 23 L 48 23 L 48 21 L 47 21 z M 62 20 L 63 20 L 63 21 L 64 21 L 64 23 L 63 23 L 63 24 L 65 24 L 65 22 L 66 22 L 66 25 L 65 25 L 65 26 L 64 26 L 64 27 L 62 27 L 62 28 L 64 28 L 64 27 L 65 27 L 65 28 L 66 28 L 66 27 L 67 27 L 67 31 L 70 31 L 70 34 L 69 34 L 69 33 L 68 33 L 68 32 L 67 32 L 67 34 L 66 34 L 66 33 L 65 33 L 65 32 L 66 32 L 66 31 L 65 31 L 65 32 L 64 32 L 64 31 L 62 31 L 62 32 L 64 32 L 64 33 L 65 33 L 65 34 L 64 34 L 64 35 L 63 35 L 63 33 L 60 33 L 60 34 L 59 34 L 59 33 L 58 33 L 58 34 L 57 34 L 57 35 L 55 35 L 55 34 L 56 34 L 56 33 L 55 33 L 55 32 L 54 32 L 54 31 L 55 31 L 55 30 L 56 30 L 56 28 L 57 28 L 57 26 L 58 26 L 58 25 L 57 25 L 57 22 L 58 22 L 58 23 L 59 23 L 59 22 L 60 22 L 60 21 L 61 21 L 61 22 L 62 22 zM 61 23 L 62 23 L 62 26 L 61 26 z M 59 25 L 60 25 L 60 26 L 59 26 z M 58 27 L 61 27 L 61 28 L 58 28 z M 57 29 L 60 29 L 60 32 L 57 32 z M 61 29 L 63 29 L 63 30 L 61 30 z M 64 29 L 66 29 L 66 30 L 64 30 z M 67 20 L 68 20 L 68 21 L 67 21 z M 72 20 L 73 20 L 73 21 L 72 21 z M 83 20 L 84 20 L 84 21 L 83 21 z M 11 21 L 12 21 L 12 25 L 10 25 L 10 27 L 8 27 L 8 28 L 10 28 L 10 29 L 9 29 L 9 36 L 7 36 L 7 35 L 6 35 L 6 34 L 7 34 L 7 33 L 6 33 L 6 34 L 5 34 L 5 33 L 4 33 L 4 32 L 3 32 L 3 31 L 4 31 L 4 29 L 3 29 L 3 28 L 7 28 L 7 27 L 6 27 L 6 26 L 7 26 L 7 25 L 5 25 L 5 24 L 4 24 L 4 22 L 5 22 L 5 23 L 6 23 L 6 24 L 8 24 L 8 23 L 9 23 L 9 24 L 10 24 L 10 22 L 11 22 zM 8 25 L 9 25 L 9 26 L 8 26 z M 5 29 L 8 29 L 8 32 L 5 32 z M 26 21 L 27 21 L 27 22 L 26 22 z M 34 21 L 35 21 L 35 22 L 36 22 L 36 23 L 41 23 L 41 24 L 39 24 L 39 25 L 38 25 L 38 24 L 37 24 L 37 25 L 38 25 L 38 26 L 37 26 L 37 27 L 36 27 L 36 26 L 35 26 L 35 25 L 36 25 L 36 24 L 35 24 L 35 23 L 34 23 L 34 25 L 33 25 L 33 24 L 32 24 L 32 23 L 33 23 L 33 22 L 34 22 z M 40 21 L 41 21 L 41 22 L 40 22 z M 51 21 L 52 21 L 52 23 L 53 23 L 53 24 L 51 24 L 51 23 L 50 23 L 50 22 L 51 22 z M 56 21 L 57 21 L 57 22 L 56 22 z M 66 21 L 67 21 L 67 22 L 66 22 z M 6 22 L 7 22 L 7 23 L 6 23 z M 21 22 L 22 22 L 22 23 L 21 23 z M 23 22 L 25 22 L 25 23 L 23 23 z M 55 22 L 56 22 L 56 23 L 55 23 z M 67 22 L 68 22 L 68 24 L 67 24 z M 77 22 L 78 22 L 78 24 L 77 24 z M 90 22 L 91 22 L 91 23 L 90 23 z M 0 23 L 1 23 L 1 24 L 2 24 L 2 25 L 0 25 z M 2 23 L 3 23 L 3 24 L 2 24 z M 42 23 L 43 23 L 43 24 L 42 24 z M 49 23 L 50 23 L 50 26 L 51 26 L 51 27 L 47 27 L 47 26 L 48 26 L 48 25 L 47 25 L 47 24 L 49 24 z M 54 23 L 55 23 L 55 26 L 53 26 L 53 25 L 54 25 z M 71 23 L 72 23 L 72 24 L 71 24 z M 84 23 L 85 23 L 85 24 L 84 24 z M 21 24 L 23 24 L 23 25 L 21 25 z M 24 24 L 25 24 L 25 25 L 24 25 z M 30 24 L 32 24 L 32 25 L 30 25 z M 43 24 L 44 24 L 44 25 L 43 25 z M 68 24 L 70 24 L 70 25 L 72 25 L 72 24 L 73 24 L 73 26 L 69 26 L 69 28 L 68 28 z M 83 24 L 84 24 L 84 25 L 83 25 z M 85 24 L 86 24 L 86 27 L 87 27 L 87 28 L 89 28 L 89 30 L 90 30 L 90 29 L 91 29 L 91 30 L 92 30 L 92 31 L 91 31 L 91 32 L 90 32 L 90 34 L 91 34 L 91 32 L 93 32 L 93 37 L 92 37 L 92 35 L 90 35 L 90 39 L 89 39 L 89 38 L 88 38 L 88 39 L 89 39 L 89 40 L 87 40 L 87 39 L 86 39 L 86 38 L 81 38 L 81 39 L 82 39 L 82 40 L 83 40 L 83 39 L 86 39 L 86 40 L 87 40 L 87 41 L 85 41 L 85 42 L 81 42 L 81 41 L 80 41 L 80 40 L 79 40 L 79 41 L 80 41 L 80 42 L 78 42 L 78 39 L 80 39 L 80 36 L 81 36 L 81 37 L 84 37 L 84 36 L 82 36 L 82 34 L 80 34 L 80 32 L 79 32 L 79 29 L 80 29 L 80 30 L 81 30 L 81 33 L 82 33 L 82 32 L 83 32 L 83 35 L 85 35 L 85 33 L 84 33 L 84 32 L 83 32 L 83 31 L 84 31 L 84 30 L 83 30 L 83 28 L 82 28 L 82 30 L 81 30 L 81 29 L 80 29 L 80 28 L 78 28 L 78 27 L 77 27 L 77 28 L 76 28 L 76 25 L 77 25 L 77 26 L 78 26 L 78 25 L 79 25 L 79 26 L 80 26 L 80 27 L 82 27 L 82 26 L 83 26 L 83 27 L 84 27 L 84 26 L 85 26 zM 85 29 L 88 29 L 88 32 L 85 32 z M 88 33 L 89 33 L 89 35 L 88 35 z M 86 35 L 87 35 L 87 36 L 86 36 z M 87 36 L 89 36 L 89 37 L 87 37 z M 2 25 L 3 25 L 3 26 L 2 26 z M 4 25 L 5 25 L 5 27 L 3 27 L 3 26 L 4 26 z M 20 25 L 21 25 L 21 26 L 20 26 z M 39 25 L 41 25 L 41 26 L 40 26 L 40 27 L 42 27 L 42 26 L 43 26 L 43 28 L 44 28 L 44 30 L 43 30 L 43 29 L 42 29 L 42 30 L 41 30 L 41 28 L 40 28 L 40 30 L 39 30 L 39 29 L 38 29 L 38 30 L 39 30 L 39 31 L 40 31 L 40 32 L 39 32 L 39 33 L 38 33 L 38 34 L 37 34 L 37 33 L 35 33 L 35 32 L 37 32 L 37 31 L 36 31 L 36 29 L 34 29 L 34 26 L 35 26 L 35 27 L 36 27 L 36 28 L 37 28 L 37 27 L 38 27 L 38 28 L 39 28 L 39 27 L 38 27 L 38 26 L 39 26 z M 45 25 L 46 25 L 46 26 L 45 26 z M 51 25 L 52 25 L 52 26 L 51 26 z M 56 25 L 57 25 L 57 26 L 56 26 z M 66 25 L 67 25 L 67 26 L 66 26 z M 80 25 L 82 25 L 82 26 L 80 26 z M 0 26 L 2 26 L 2 27 L 1 27 L 1 28 L 2 28 L 2 29 L 0 29 z M 21 26 L 22 26 L 22 28 L 24 28 L 24 29 L 23 29 L 23 30 L 22 30 L 22 29 L 21 29 L 21 28 L 19 28 L 19 27 L 21 27 z M 30 26 L 32 26 L 32 27 L 31 27 L 31 28 L 33 28 L 33 29 L 34 29 L 34 30 L 35 30 L 35 31 L 34 31 L 34 32 L 33 32 L 33 33 L 34 33 L 34 34 L 32 34 L 32 33 L 31 33 L 31 34 L 29 34 L 29 33 L 28 33 L 28 32 L 27 32 L 27 30 L 26 30 L 26 31 L 25 31 L 25 32 L 24 32 L 24 33 L 22 33 L 22 34 L 24 34 L 24 35 L 25 35 L 25 36 L 24 36 L 24 37 L 21 37 L 21 38 L 23 38 L 23 39 L 21 39 L 21 41 L 22 41 L 22 43 L 23 43 L 23 44 L 24 44 L 24 45 L 26 45 L 26 44 L 25 44 L 25 41 L 27 41 L 27 42 L 28 42 L 28 41 L 30 41 L 30 40 L 29 40 L 29 39 L 31 39 L 31 42 L 30 42 L 30 43 L 29 43 L 29 44 L 30 44 L 30 43 L 31 43 L 31 46 L 32 46 L 32 48 L 30 48 L 30 49 L 31 49 L 31 50 L 30 50 L 30 51 L 27 51 L 27 52 L 24 52 L 24 51 L 26 51 L 26 50 L 29 50 L 29 49 L 28 49 L 28 48 L 29 48 L 29 46 L 30 46 L 30 45 L 28 45 L 28 46 L 25 46 L 25 47 L 24 47 L 24 46 L 23 46 L 23 47 L 22 47 L 22 49 L 21 49 L 21 50 L 20 50 L 20 51 L 17 51 L 17 52 L 16 52 L 16 50 L 15 50 L 15 49 L 16 49 L 16 48 L 15 48 L 15 47 L 16 47 L 16 45 L 17 45 L 17 46 L 18 46 L 18 45 L 19 45 L 19 47 L 20 47 L 20 46 L 22 46 L 22 45 L 19 45 L 19 44 L 20 44 L 20 42 L 19 42 L 19 41 L 20 41 L 20 38 L 19 38 L 19 37 L 17 37 L 17 36 L 16 36 L 16 37 L 15 37 L 15 38 L 13 38 L 13 37 L 12 37 L 12 36 L 14 36 L 14 34 L 15 34 L 15 35 L 16 35 L 16 34 L 15 34 L 15 32 L 16 32 L 16 33 L 17 33 L 17 34 L 19 34 L 19 33 L 18 33 L 18 30 L 17 30 L 17 28 L 18 28 L 18 29 L 20 29 L 20 30 L 19 30 L 19 31 L 20 31 L 20 32 L 21 32 L 21 30 L 22 30 L 22 32 L 23 32 L 23 31 L 24 31 L 24 30 L 25 30 L 25 29 L 26 29 L 26 28 L 27 28 L 27 27 L 28 27 L 28 28 L 30 28 zM 29 29 L 32 29 L 32 32 L 29 32 z M 20 33 L 21 33 L 21 34 L 20 34 z M 18 35 L 23 35 L 23 36 L 18 36 z M 27 43 L 28 43 L 28 44 L 27 44 z M 17 47 L 18 47 L 18 49 L 17 49 z M 52 26 L 53 26 L 53 27 L 52 27 z M 55 26 L 56 26 L 56 28 L 55 28 L 55 30 L 54 30 L 54 31 L 53 31 L 53 29 L 54 29 L 54 27 L 55 27 z M 65 26 L 66 26 L 66 27 L 65 27 z M 2 27 L 3 27 L 3 28 L 2 28 z M 10 27 L 11 27 L 11 28 L 10 28 z M 44 27 L 45 27 L 45 28 L 44 28 z M 46 27 L 47 27 L 47 28 L 46 28 z M 71 27 L 72 27 L 72 28 L 71 28 z M 11 28 L 12 28 L 12 29 L 11 29 z M 45 28 L 46 28 L 46 29 L 45 29 z M 47 28 L 49 28 L 49 30 L 50 30 L 50 29 L 51 29 L 51 28 L 53 28 L 53 29 L 52 29 L 52 31 L 53 31 L 53 32 L 51 32 L 51 31 L 49 31 L 49 33 L 50 33 L 50 34 L 49 34 L 49 35 L 48 35 L 48 34 L 47 34 L 47 33 L 48 33 L 48 32 L 47 32 L 47 31 L 48 31 L 48 29 L 47 29 z M 70 28 L 71 28 L 71 29 L 70 29 z M 75 28 L 76 28 L 76 29 L 77 29 L 77 30 L 75 30 z M 2 29 L 3 29 L 3 31 L 2 31 L 2 32 L 1 32 L 1 30 L 2 30 z M 69 29 L 70 29 L 70 30 L 69 30 z M 71 29 L 72 29 L 72 30 L 75 30 L 75 32 L 76 32 L 76 35 L 75 35 L 75 36 L 74 36 L 74 37 L 73 37 L 73 35 L 72 35 L 72 34 L 74 34 L 74 33 L 73 33 L 73 31 L 72 31 L 72 32 L 71 32 z M 6 30 L 7 30 L 7 31 L 6 31 z M 11 30 L 12 30 L 12 31 L 13 31 L 13 33 L 12 33 L 12 34 L 11 34 L 11 37 L 9 37 L 9 36 L 10 36 L 10 33 L 11 33 L 11 32 L 10 32 L 10 31 L 11 31 z M 16 30 L 17 30 L 17 32 L 16 32 z M 30 30 L 31 30 L 31 31 L 30 31 z M 40 30 L 41 30 L 41 31 L 40 31 z M 44 30 L 47 30 L 47 31 L 46 31 L 46 33 L 45 33 L 45 32 L 44 32 z M 58 30 L 59 30 L 59 31 L 58 31 z M 77 30 L 78 30 L 78 31 L 77 31 z M 82 30 L 83 30 L 83 31 L 82 31 z M 86 30 L 87 30 L 87 31 L 86 31 z M 41 31 L 43 31 L 43 32 L 44 32 L 44 33 L 45 33 L 45 36 L 44 36 L 44 37 L 45 37 L 45 38 L 47 38 L 47 37 L 48 37 L 48 36 L 49 36 L 49 39 L 48 39 L 48 40 L 49 40 L 49 41 L 50 41 L 50 42 L 49 42 L 49 44 L 50 44 L 50 42 L 51 42 L 51 41 L 53 41 L 53 42 L 52 42 L 52 43 L 54 43 L 54 44 L 51 44 L 51 45 L 50 45 L 50 46 L 49 46 L 49 45 L 48 45 L 48 42 L 47 42 L 47 39 L 45 39 L 45 40 L 44 40 L 44 39 L 43 39 L 43 40 L 44 40 L 44 43 L 45 43 L 45 44 L 44 44 L 44 45 L 43 45 L 43 46 L 41 46 L 41 45 L 42 45 L 42 44 L 43 44 L 43 42 L 40 42 L 40 41 L 42 41 L 42 40 L 39 40 L 39 39 L 40 39 L 40 38 L 39 38 L 39 37 L 40 37 L 40 36 L 41 36 L 41 37 L 42 37 L 42 38 L 41 38 L 41 39 L 42 39 L 42 38 L 43 38 L 43 34 L 42 34 L 42 36 L 41 36 z M 76 31 L 77 31 L 77 32 L 76 32 z M 2 32 L 3 32 L 3 33 L 2 33 z M 0 33 L 1 33 L 1 34 L 2 34 L 2 35 L 0 35 z M 24 33 L 27 33 L 27 34 L 24 34 z M 39 33 L 40 33 L 40 36 L 39 36 L 39 35 L 38 35 L 38 34 L 39 34 z M 54 33 L 55 33 L 55 34 L 54 34 z M 71 33 L 72 33 L 72 34 L 71 34 z M 78 33 L 79 33 L 79 35 L 80 35 L 80 36 L 78 36 L 78 37 L 77 37 L 77 36 L 76 36 L 76 35 L 77 35 L 77 34 L 78 34 z M 4 34 L 5 34 L 5 36 L 4 36 L 4 37 L 3 37 L 3 35 L 4 35 z M 12 34 L 13 34 L 13 35 L 12 35 z M 28 34 L 29 34 L 29 35 L 30 35 L 30 36 L 29 36 L 29 37 L 27 37 L 27 36 L 28 36 z M 31 34 L 32 34 L 32 35 L 31 35 z M 36 34 L 37 34 L 37 35 L 36 35 z M 46 34 L 47 34 L 47 37 L 45 37 L 45 36 L 46 36 z M 50 34 L 51 34 L 51 35 L 50 35 z M 52 34 L 54 34 L 54 37 L 55 37 L 55 38 L 53 38 L 53 36 L 52 36 z M 58 34 L 59 34 L 59 37 L 58 37 L 58 38 L 57 38 L 57 37 L 55 37 L 55 36 L 58 36 z M 60 34 L 62 34 L 62 36 L 64 36 L 64 35 L 65 35 L 65 34 L 66 34 L 66 36 L 67 36 L 67 37 L 68 37 L 68 38 L 67 38 L 67 39 L 69 39 L 69 41 L 70 41 L 70 42 L 69 42 L 69 43 L 68 43 L 68 40 L 66 40 L 66 37 L 63 37 L 63 38 L 61 38 L 61 37 L 60 37 z M 67 34 L 69 34 L 69 35 L 70 35 L 70 38 L 69 38 L 69 37 L 68 37 L 68 36 L 67 36 z M 70 34 L 71 34 L 71 35 L 70 35 z M 26 35 L 27 35 L 27 36 L 26 36 z M 32 35 L 34 35 L 34 37 L 33 37 L 33 38 L 32 38 L 32 37 L 31 37 L 31 38 L 29 38 L 29 37 L 30 37 L 30 36 L 32 36 z M 35 35 L 36 35 L 36 36 L 37 36 L 37 37 L 38 37 L 38 38 L 39 38 L 39 39 L 38 39 L 38 42 L 35 42 L 35 40 L 37 40 L 37 39 L 36 39 L 36 37 L 35 37 z M 71 35 L 72 35 L 72 36 L 71 36 z M 6 36 L 7 36 L 7 37 L 6 37 z M 38 36 L 39 36 L 39 37 L 38 37 z M 50 36 L 51 36 L 51 37 L 50 37 z M 75 36 L 76 36 L 76 37 L 77 37 L 77 38 L 76 38 L 76 39 L 74 39 L 74 38 L 75 38 z M 1 37 L 3 37 L 3 39 L 2 39 L 2 38 L 1 38 z M 4 37 L 5 37 L 5 38 L 4 38 z M 8 37 L 9 37 L 9 38 L 8 38 z M 11 37 L 12 37 L 12 38 L 13 38 L 13 39 L 15 39 L 15 38 L 16 38 L 16 40 L 17 40 L 17 44 L 16 44 L 16 42 L 15 42 L 15 43 L 13 43 L 13 42 L 14 42 L 14 41 L 13 41 L 13 40 L 12 40 L 12 39 L 11 39 L 11 40 L 10 40 L 10 39 L 9 39 L 9 38 L 11 38 z M 25 37 L 27 37 L 27 38 L 25 38 z M 59 37 L 60 37 L 60 38 L 59 38 z M 72 37 L 73 37 L 73 39 L 72 39 L 72 40 L 71 40 L 71 38 L 72 38 z M 6 38 L 7 38 L 7 39 L 6 39 z M 17 38 L 18 38 L 18 40 L 17 40 z M 33 38 L 35 38 L 35 40 L 34 40 L 34 41 L 33 41 L 33 40 L 32 40 L 32 39 L 33 39 z M 50 38 L 53 38 L 53 39 L 55 39 L 55 40 L 56 40 L 56 41 L 55 41 L 55 42 L 54 42 L 54 41 L 53 41 L 53 40 L 51 40 L 51 39 L 50 39 z M 56 38 L 57 38 L 57 39 L 56 39 z M 58 38 L 59 38 L 59 39 L 58 39 z M 63 38 L 64 38 L 64 39 L 63 39 z M 77 38 L 78 38 L 78 39 L 77 39 z M 92 38 L 93 38 L 93 42 L 92 42 L 92 41 L 90 41 L 90 40 L 91 40 L 91 39 L 92 39 z M 1 39 L 2 39 L 2 40 L 4 40 L 4 41 L 2 41 L 2 42 L 0 42 L 0 41 L 1 41 z M 4 39 L 6 39 L 6 40 L 4 40 z M 7 39 L 8 39 L 8 40 L 7 40 z M 24 39 L 27 39 L 27 40 L 24 40 z M 49 39 L 50 39 L 50 40 L 49 40 z M 59 39 L 60 39 L 60 40 L 59 40 z M 62 39 L 63 39 L 63 40 L 62 40 z M 64 39 L 65 39 L 65 40 L 64 40 z M 73 39 L 74 39 L 74 40 L 73 40 z M 76 39 L 77 39 L 77 41 L 76 41 L 76 43 L 73 43 L 73 44 L 71 44 L 71 43 L 72 43 L 72 42 L 71 42 L 71 41 L 73 41 L 73 42 L 75 42 L 75 40 L 76 40 z M 6 40 L 7 40 L 7 41 L 6 41 z M 8 40 L 9 40 L 9 42 L 8 42 z M 18 40 L 19 40 L 19 41 L 18 41 z M 23 40 L 24 40 L 24 41 L 23 41 z M 27 40 L 28 40 L 28 41 L 27 41 z M 58 40 L 59 40 L 59 41 L 60 41 L 60 42 L 59 42 L 59 43 L 58 43 L 58 42 L 57 42 L 57 41 L 58 41 z M 60 40 L 62 40 L 62 41 L 60 41 z M 63 40 L 64 40 L 64 41 L 65 41 L 65 42 L 64 42 L 64 43 L 62 43 L 62 44 L 64 44 L 64 45 L 65 45 L 65 46 L 64 46 L 64 47 L 60 47 L 60 46 L 63 46 L 63 45 L 61 45 L 61 44 L 60 44 L 60 43 L 61 43 L 61 42 L 63 42 z M 70 40 L 71 40 L 71 41 L 70 41 z M 4 41 L 5 41 L 5 42 L 7 42 L 7 43 L 6 43 L 6 44 L 7 44 L 7 45 L 6 45 L 6 46 L 5 46 L 5 43 L 4 43 z M 10 41 L 11 41 L 11 42 L 12 42 L 12 43 L 13 43 L 13 45 L 15 45 L 15 47 L 11 47 L 11 46 L 12 46 L 12 44 L 11 44 L 11 43 L 10 43 L 10 45 L 9 45 L 9 44 L 8 44 L 8 43 L 9 43 L 9 42 L 10 42 z M 32 41 L 33 41 L 33 42 L 32 42 z M 66 41 L 67 41 L 67 42 L 66 42 z M 87 41 L 88 41 L 88 42 L 89 42 L 89 44 L 87 44 z M 89 41 L 90 41 L 90 42 L 89 42 z M 2 42 L 3 42 L 3 44 L 2 44 z M 31 42 L 32 42 L 32 43 L 31 43 z M 33 42 L 35 42 L 35 43 L 34 43 L 34 44 L 35 44 L 35 45 L 34 45 L 34 46 L 35 46 L 35 47 L 34 47 L 34 48 L 38 48 L 38 49 L 37 49 L 37 50 L 34 50 L 34 51 L 35 51 L 35 52 L 32 52 L 32 50 L 33 50 L 33 49 L 32 49 L 32 48 L 33 48 L 33 46 L 32 46 L 32 45 L 33 45 L 33 44 L 32 44 L 32 43 L 33 43 z M 38 42 L 39 42 L 39 43 L 38 43 z M 46 42 L 47 42 L 47 45 L 46 45 z M 56 42 L 57 42 L 57 43 L 56 43 z M 65 42 L 66 42 L 66 43 L 68 43 L 68 45 L 66 45 L 66 44 L 64 44 L 64 43 L 65 43 z M 77 42 L 78 42 L 78 43 L 80 43 L 80 42 L 81 42 L 81 43 L 82 43 L 82 44 L 83 44 L 83 43 L 86 43 L 86 44 L 87 44 L 87 45 L 86 45 L 86 46 L 84 46 L 84 47 L 86 47 L 86 48 L 87 48 L 87 49 L 88 49 L 88 52 L 87 52 L 87 51 L 86 51 L 86 50 L 84 50 L 84 48 L 83 48 L 83 47 L 82 47 L 82 46 L 83 46 L 83 45 L 82 45 L 82 46 L 81 46 L 81 47 L 80 47 L 80 44 L 79 44 L 79 45 L 78 45 L 78 44 L 77 44 z M 91 42 L 92 42 L 92 43 L 91 43 z M 0 43 L 1 43 L 1 44 L 2 44 L 2 45 L 0 45 z M 18 43 L 19 43 L 19 44 L 18 44 z M 37 43 L 38 43 L 38 45 L 36 45 L 36 44 L 37 44 z M 39 43 L 42 43 L 42 44 L 39 44 z M 69 43 L 70 43 L 70 46 L 69 46 L 69 47 L 67 47 L 67 48 L 69 48 L 69 47 L 70 47 L 70 46 L 72 46 L 72 48 L 70 48 L 70 50 L 68 50 L 68 51 L 70 51 L 70 53 L 71 53 L 71 54 L 69 54 L 69 53 L 68 53 L 68 52 L 66 52 L 66 51 L 65 51 L 65 54 L 64 54 L 64 53 L 63 53 L 63 56 L 61 56 L 61 58 L 62 58 L 62 57 L 63 57 L 63 56 L 64 56 L 64 57 L 65 57 L 65 58 L 66 58 L 66 59 L 65 59 L 65 60 L 64 60 L 64 58 L 63 58 L 63 59 L 61 59 L 61 61 L 60 61 L 60 63 L 59 63 L 59 64 L 58 64 L 58 63 L 56 63 L 56 62 L 59 62 L 59 61 L 56 61 L 56 58 L 53 58 L 53 57 L 54 57 L 54 56 L 53 56 L 53 57 L 52 57 L 52 55 L 55 55 L 55 56 L 57 56 L 57 55 L 58 55 L 58 56 L 59 56 L 59 55 L 60 55 L 60 53 L 59 53 L 59 51 L 60 51 L 60 52 L 61 52 L 61 54 L 62 54 L 62 52 L 64 52 L 64 49 L 65 49 L 65 50 L 67 50 L 67 49 L 66 49 L 66 48 L 65 48 L 65 46 L 68 46 L 68 45 L 69 45 zM 57 57 L 60 57 L 60 60 L 57 60 z M 90 43 L 91 43 L 91 44 L 90 44 z M 15 44 L 16 44 L 16 45 L 15 45 z M 17 44 L 18 44 L 18 45 L 17 45 z M 55 44 L 57 44 L 57 45 L 55 45 z M 59 44 L 60 44 L 60 46 L 59 46 z M 73 44 L 74 44 L 74 45 L 73 45 z M 75 44 L 76 44 L 76 45 L 77 45 L 77 46 L 76 46 L 76 47 L 75 47 L 75 48 L 73 48 L 73 46 L 74 46 L 74 45 L 75 45 z M 3 45 L 4 45 L 4 46 L 3 46 z M 7 45 L 8 45 L 8 46 L 7 46 z M 10 45 L 11 45 L 11 46 L 10 46 z M 35 45 L 36 45 L 36 46 L 35 46 z M 39 45 L 40 45 L 40 46 L 39 46 z M 47 45 L 48 45 L 48 47 L 47 47 L 47 48 L 45 48 L 45 46 L 47 46 z M 51 45 L 52 45 L 52 47 L 53 47 L 53 48 L 52 48 L 52 50 L 51 50 L 51 47 L 50 47 L 50 46 L 51 46 z M 53 45 L 55 45 L 55 46 L 53 46 z M 57 45 L 58 45 L 58 46 L 57 46 z M 72 45 L 73 45 L 73 46 L 72 46 z M 87 45 L 88 45 L 88 46 L 87 46 z M 90 45 L 91 45 L 91 46 L 90 46 z M 92 45 L 93 45 L 93 46 L 92 46 z M 0 46 L 1 46 L 1 47 L 0 47 z M 6 46 L 7 46 L 7 47 L 6 47 z M 9 46 L 10 46 L 10 47 L 9 47 z M 36 46 L 37 46 L 37 47 L 36 47 z M 38 46 L 39 46 L 39 47 L 38 47 z M 40 46 L 41 46 L 41 48 L 40 48 z M 56 46 L 57 46 L 57 47 L 56 47 z M 58 46 L 59 46 L 59 47 L 60 47 L 60 48 L 59 48 L 59 49 L 60 49 L 60 50 L 59 50 L 59 51 L 58 51 L 58 50 L 57 50 L 57 49 L 58 49 z M 77 46 L 78 46 L 78 47 L 77 47 z M 88 46 L 89 46 L 89 48 L 88 48 z M 91 46 L 92 46 L 92 47 L 91 47 z M 1 47 L 2 47 L 2 48 L 3 48 L 3 47 L 4 47 L 4 48 L 5 48 L 5 49 L 4 49 L 4 50 L 5 50 L 5 51 L 3 51 L 3 50 L 2 50 L 2 49 L 1 49 z M 10 47 L 11 47 L 11 48 L 12 48 L 12 50 L 13 50 L 13 48 L 14 48 L 14 50 L 15 50 L 15 51 L 14 51 L 14 52 L 16 52 L 16 53 L 17 53 L 17 54 L 15 54 L 15 53 L 13 53 L 13 52 L 12 52 L 12 51 L 11 51 L 11 52 L 12 52 L 12 53 L 11 53 L 11 54 L 10 54 L 10 53 L 9 53 L 9 54 L 10 54 L 10 55 L 9 55 L 9 56 L 10 56 L 10 57 L 9 57 L 9 58 L 10 58 L 10 59 L 11 59 L 11 60 L 13 60 L 13 61 L 14 61 L 14 60 L 15 60 L 15 62 L 16 62 L 16 63 L 14 63 L 14 62 L 12 62 L 12 61 L 10 61 L 10 60 L 9 60 L 9 61 L 6 61 L 6 62 L 5 62 L 5 64 L 4 64 L 4 63 L 3 63 L 3 66 L 0 66 L 0 65 L 1 65 L 1 64 L 0 64 L 0 62 L 1 62 L 1 63 L 2 63 L 2 62 L 4 62 L 4 61 L 3 61 L 3 59 L 4 59 L 4 57 L 3 57 L 3 55 L 4 55 L 4 56 L 8 56 L 8 55 L 6 55 L 6 54 L 7 54 L 7 53 L 8 53 L 8 51 L 9 51 L 9 52 L 10 52 L 10 51 L 9 51 L 9 50 L 8 50 L 8 49 L 6 49 L 6 48 L 9 48 L 9 49 L 10 49 L 10 50 L 11 50 L 11 49 L 10 49 zM 5 57 L 8 57 L 8 60 L 5 60 z M 42 47 L 44 47 L 44 48 L 43 48 L 43 49 L 44 49 L 44 50 L 42 50 L 42 51 L 41 51 L 41 49 L 42 49 z M 49 47 L 50 47 L 50 48 L 49 48 z M 54 47 L 55 47 L 55 48 L 57 48 L 57 49 L 55 49 L 55 50 L 54 50 L 54 52 L 51 52 L 51 51 L 52 51 L 52 50 L 53 50 L 53 49 L 54 49 z M 79 47 L 80 47 L 80 48 L 79 48 z M 90 47 L 91 47 L 91 48 L 90 48 z M 23 48 L 24 48 L 24 49 L 23 49 z M 26 48 L 27 48 L 27 49 L 26 49 z M 48 48 L 49 48 L 49 49 L 48 49 z M 61 48 L 62 48 L 62 49 L 61 49 z M 63 48 L 64 48 L 64 49 L 63 49 z M 75 48 L 77 48 L 77 50 L 76 50 L 76 51 L 74 51 L 74 52 L 73 52 L 73 50 L 72 50 L 72 49 L 75 49 z M 80 48 L 83 48 L 83 49 L 82 49 L 82 50 L 81 50 L 81 49 L 80 49 z M 22 49 L 23 49 L 23 51 L 22 51 L 22 53 L 21 53 L 21 52 L 20 52 L 20 51 L 21 51 L 21 50 L 22 50 z M 39 49 L 40 49 L 40 51 L 41 51 L 41 52 L 39 52 L 39 53 L 38 53 L 38 51 L 39 51 z M 47 49 L 48 49 L 48 50 L 49 50 L 49 51 L 48 51 L 48 52 L 49 52 L 49 53 L 50 53 L 50 54 L 49 54 L 49 55 L 48 55 L 48 54 L 46 54 L 46 53 L 45 53 L 45 52 L 46 52 L 46 51 L 45 51 L 45 50 L 47 50 z M 49 49 L 50 49 L 50 50 L 49 50 z M 62 49 L 63 49 L 63 51 L 61 51 L 61 50 L 62 50 z M 79 49 L 80 49 L 80 50 L 79 50 z M 90 49 L 92 49 L 92 50 L 90 50 z M 0 50 L 1 50 L 1 52 L 0 52 z M 6 50 L 8 50 L 8 51 L 6 51 z M 37 50 L 38 50 L 38 51 L 37 51 z M 50 50 L 51 50 L 51 51 L 50 51 z M 70 50 L 72 50 L 72 52 L 71 52 L 71 51 L 70 51 z M 77 50 L 78 50 L 78 51 L 77 51 z M 82 50 L 83 50 L 83 51 L 82 51 z M 89 50 L 90 50 L 90 51 L 89 51 z M 92 50 L 93 50 L 93 51 L 92 51 z M 30 51 L 31 51 L 31 52 L 30 52 z M 36 51 L 37 51 L 37 52 L 36 52 z M 42 51 L 43 51 L 43 53 L 42 53 z M 44 51 L 45 51 L 45 52 L 44 52 z M 49 51 L 50 51 L 50 52 L 49 52 z M 55 51 L 56 51 L 56 53 L 55 53 z M 57 51 L 58 51 L 58 54 L 57 54 L 57 55 L 56 55 L 56 53 L 57 53 z M 76 51 L 77 51 L 77 54 L 76 54 L 76 53 L 75 53 L 75 55 L 72 55 L 72 56 L 71 56 L 71 54 L 72 54 L 72 53 L 73 53 L 73 54 L 74 54 L 74 52 L 76 52 z M 79 51 L 82 51 L 82 52 L 79 52 z M 83 51 L 86 51 L 86 52 L 83 52 z M 90 51 L 91 51 L 91 54 L 90 54 z M 3 52 L 5 52 L 5 55 L 4 55 L 4 54 L 3 54 L 3 55 L 2 55 L 2 54 L 1 54 L 1 53 L 3 53 z M 6 52 L 7 52 L 7 53 L 6 53 z M 18 52 L 19 52 L 19 54 L 18 54 z M 27 52 L 30 52 L 30 53 L 27 53 z M 35 52 L 36 52 L 36 53 L 35 53 z M 78 52 L 79 52 L 79 54 L 78 54 z M 86 52 L 87 52 L 87 53 L 88 53 L 88 56 L 89 56 L 89 59 L 90 59 L 90 57 L 91 57 L 91 58 L 92 58 L 92 61 L 91 61 L 91 60 L 90 60 L 90 61 L 89 61 L 89 62 L 88 62 L 88 63 L 89 63 L 89 64 L 91 64 L 91 65 L 90 65 L 90 66 L 89 66 L 89 65 L 88 65 L 88 66 L 86 66 L 86 65 L 87 65 L 87 63 L 86 63 L 86 62 L 87 62 L 87 61 L 84 61 L 84 56 L 83 56 L 83 55 L 82 55 L 82 54 L 84 54 L 84 55 L 86 55 L 86 56 L 87 56 L 87 55 L 86 55 zM 85 57 L 88 57 L 88 60 L 85 60 z M 20 53 L 21 53 L 21 54 L 20 54 z M 22 53 L 27 53 L 27 54 L 26 54 L 26 55 L 27 55 L 27 54 L 29 54 L 29 55 L 28 55 L 28 56 L 30 56 L 30 55 L 31 55 L 31 54 L 32 54 L 32 55 L 33 55 L 33 54 L 36 54 L 36 55 L 34 55 L 34 57 L 33 57 L 33 58 L 35 58 L 35 59 L 36 59 L 36 60 L 39 60 L 39 59 L 41 59 L 41 60 L 40 60 L 40 61 L 38 61 L 38 62 L 37 62 L 37 63 L 35 63 L 35 62 L 34 62 L 34 61 L 31 61 L 31 63 L 29 63 L 29 62 L 30 62 L 30 61 L 29 61 L 29 62 L 28 62 L 28 61 L 26 61 L 26 59 L 27 59 L 27 58 L 28 58 L 28 57 L 27 57 L 27 56 L 24 56 L 24 57 L 23 57 L 23 60 L 22 60 L 22 57 L 20 57 L 20 58 L 19 58 L 19 57 L 18 57 L 18 56 L 20 56 L 20 55 L 21 55 L 21 56 L 23 56 L 23 55 L 21 55 L 21 54 L 22 54 zM 24 54 L 25 54 L 25 55 L 24 55 z M 29 57 L 32 57 L 32 60 L 29 60 z M 33 59 L 34 59 L 34 60 L 33 60 z M 30 53 L 31 53 L 31 54 L 30 54 z M 32 53 L 33 53 L 33 54 L 32 54 z M 37 53 L 38 53 L 38 54 L 37 54 z M 39 53 L 40 53 L 40 55 L 41 55 L 41 56 L 40 56 L 40 57 L 39 57 L 39 55 L 38 55 L 38 54 L 39 54 z M 53 53 L 55 53 L 55 54 L 53 54 z M 66 53 L 68 53 L 68 56 L 67 56 L 67 58 L 66 58 L 66 55 L 67 55 L 67 54 L 66 54 z M 81 53 L 82 53 L 82 54 L 81 54 z M 84 53 L 85 53 L 85 54 L 84 54 z M 92 53 L 93 53 L 93 54 L 92 54 z M 0 54 L 1 54 L 1 56 L 0 56 z M 12 54 L 14 54 L 14 55 L 12 55 z M 41 54 L 44 54 L 44 55 L 45 55 L 45 56 L 44 56 L 44 57 L 43 57 L 43 56 L 42 56 L 42 55 L 41 55 z M 45 54 L 46 54 L 46 55 L 45 55 z M 50 54 L 52 54 L 52 55 L 51 55 L 51 57 L 52 57 L 52 59 L 54 59 L 54 61 L 53 61 L 53 60 L 51 60 L 51 59 L 50 59 L 50 58 L 49 58 L 49 57 L 48 57 L 48 56 L 49 56 L 49 55 L 50 55 z M 58 54 L 59 54 L 59 55 L 58 55 z M 65 54 L 66 54 L 66 55 L 65 55 z M 89 54 L 90 54 L 90 55 L 91 55 L 91 54 L 92 54 L 92 56 L 89 56 z M 15 55 L 18 55 L 18 56 L 17 56 L 17 57 L 14 57 L 14 56 L 15 56 z M 37 55 L 38 55 L 38 58 L 37 58 L 37 59 L 36 59 L 36 56 L 37 56 z M 64 55 L 65 55 L 65 56 L 64 56 z M 69 55 L 70 55 L 70 57 L 69 57 L 69 58 L 68 58 L 68 56 L 69 56 z M 76 55 L 77 55 L 77 58 L 76 58 L 76 59 L 75 59 L 75 60 L 74 60 L 74 59 L 73 59 L 73 58 L 74 58 L 74 57 L 75 57 L 75 56 L 76 56 z M 79 55 L 81 55 L 81 56 L 79 56 z M 1 56 L 2 56 L 2 57 L 3 57 L 3 58 L 1 58 z M 73 56 L 74 56 L 74 57 L 73 57 z M 78 56 L 79 56 L 79 59 L 82 59 L 82 60 L 81 60 L 81 61 L 80 61 L 80 60 L 79 60 L 79 62 L 78 62 L 78 59 L 77 59 L 77 58 L 78 58 z M 82 56 L 83 56 L 83 57 L 82 57 z M 92 56 L 93 56 L 93 58 L 92 58 z M 24 57 L 27 57 L 27 58 L 25 58 L 25 60 L 24 60 z M 47 57 L 48 57 L 48 58 L 49 58 L 49 59 L 50 59 L 50 60 L 48 60 L 48 59 L 45 59 L 45 58 L 47 58 z M 72 57 L 73 57 L 73 58 L 72 58 z M 81 57 L 82 57 L 82 58 L 81 58 z M 6 58 L 7 58 L 7 59 L 6 59 z M 11 58 L 12 58 L 12 59 L 11 59 z M 14 58 L 15 58 L 15 59 L 14 59 z M 17 58 L 18 58 L 18 59 L 17 59 z M 30 58 L 31 58 L 31 59 L 30 59 z M 38 58 L 39 58 L 39 59 L 38 59 z M 42 58 L 43 58 L 43 60 L 42 60 z M 58 58 L 59 58 L 59 59 L 58 59 z M 70 58 L 72 58 L 72 60 L 70 60 L 70 61 L 71 61 L 71 63 L 70 63 L 70 62 L 69 62 L 69 60 L 67 60 L 67 61 L 68 61 L 68 62 L 66 62 L 66 61 L 65 61 L 65 60 L 66 60 L 66 59 L 70 59 z M 82 58 L 83 58 L 83 59 L 82 59 z M 86 58 L 87 58 L 87 59 L 86 59 z M 15 59 L 17 59 L 17 60 L 15 60 z M 18 59 L 19 59 L 19 60 L 18 60 z M 20 59 L 21 59 L 21 61 L 23 61 L 23 62 L 20 62 L 20 61 L 19 61 L 19 60 L 20 60 z M 44 59 L 45 59 L 45 60 L 44 60 z M 1 60 L 2 60 L 2 62 L 1 62 z M 23 60 L 24 60 L 24 61 L 23 61 z M 41 60 L 42 60 L 42 61 L 43 61 L 43 62 L 42 62 L 42 63 L 40 63 L 40 61 L 41 61 z M 43 60 L 44 60 L 44 61 L 43 61 z M 45 60 L 46 60 L 46 61 L 45 61 z M 47 60 L 48 60 L 48 61 L 47 61 z M 63 60 L 64 60 L 64 63 L 62 63 L 62 62 L 63 62 z M 72 60 L 74 60 L 74 61 L 73 61 L 73 62 L 72 62 z M 75 60 L 76 60 L 76 61 L 77 61 L 77 62 L 78 62 L 78 63 L 79 63 L 79 62 L 80 62 L 80 63 L 82 63 L 82 66 L 81 66 L 81 64 L 79 64 L 79 66 L 81 66 L 81 67 L 82 67 L 82 66 L 83 66 L 83 68 L 82 68 L 82 69 L 84 69 L 84 70 L 81 70 L 81 68 L 79 68 L 79 69 L 78 69 L 78 67 L 77 67 L 77 66 L 78 66 L 78 64 L 76 64 L 76 63 L 75 63 z M 9 61 L 10 61 L 10 62 L 11 62 L 11 63 L 12 63 L 12 64 L 10 64 L 10 63 L 9 63 z M 16 61 L 17 61 L 17 62 L 16 62 z M 18 61 L 19 61 L 19 62 L 18 62 z M 25 61 L 26 61 L 26 63 L 27 63 L 27 64 L 28 64 L 28 63 L 29 63 L 29 65 L 26 65 L 26 64 L 24 64 L 24 63 L 25 63 z M 49 61 L 50 61 L 50 62 L 49 62 z M 51 61 L 52 61 L 52 63 L 50 63 L 50 62 L 51 62 z M 54 61 L 55 61 L 55 62 L 54 62 z M 81 61 L 84 61 L 84 62 L 83 62 L 83 63 L 82 63 L 82 62 L 81 62 z M 90 61 L 91 61 L 91 62 L 92 62 L 92 61 L 93 61 L 93 64 L 92 64 L 92 63 L 90 63 z M 6 62 L 7 62 L 7 63 L 6 63 z M 17 62 L 18 62 L 18 63 L 19 63 L 19 64 L 18 64 L 18 65 L 19 65 L 19 66 L 17 66 L 17 65 L 16 65 L 16 63 L 17 63 z M 27 62 L 28 62 L 28 63 L 27 63 z M 33 62 L 34 62 L 34 63 L 33 63 z M 38 62 L 39 62 L 39 63 L 38 63 z M 43 62 L 44 62 L 44 63 L 43 63 z M 45 62 L 48 62 L 48 64 L 49 64 L 49 65 L 48 65 L 48 67 L 45 67 L 45 66 L 44 66 L 44 65 L 45 65 L 45 64 L 46 64 L 46 66 L 47 66 L 47 63 L 45 63 z M 65 62 L 66 62 L 66 63 L 68 63 L 68 62 L 69 62 L 69 64 L 70 64 L 70 66 L 68 66 L 68 67 L 70 67 L 70 70 L 69 70 L 69 68 L 67 68 L 67 69 L 68 69 L 68 70 L 66 70 L 66 68 L 65 68 L 65 69 L 64 69 L 64 71 L 61 71 L 61 70 L 62 70 L 62 68 L 64 68 L 64 67 L 63 67 L 63 64 L 64 64 L 64 63 L 65 63 zM 67 64 L 68 64 L 68 65 L 67 65 z M 65 65 L 66 65 L 66 66 L 67 66 L 67 67 L 65 67 z M 73 62 L 74 62 L 74 63 L 73 63 z M 84 62 L 85 62 L 85 63 L 84 63 z M 8 63 L 9 63 L 9 64 L 8 64 z M 22 63 L 23 63 L 23 64 L 24 64 L 24 65 L 21 65 L 21 64 L 22 64 z M 31 63 L 33 63 L 33 64 L 34 64 L 34 65 L 33 65 L 33 67 L 32 67 L 32 66 L 31 66 L 31 67 L 29 67 L 29 66 L 30 66 L 30 65 L 32 65 L 32 64 L 31 64 z M 34 63 L 35 63 L 35 64 L 34 64 z M 42 63 L 43 63 L 43 64 L 44 64 L 44 65 L 43 65 L 43 66 L 44 66 L 44 67 L 43 67 L 43 68 L 44 68 L 44 69 L 43 69 L 43 70 L 42 70 L 42 71 L 41 71 L 41 68 L 40 68 L 40 67 L 41 67 L 41 66 L 42 66 L 42 65 L 41 65 L 41 64 L 42 64 z M 44 63 L 45 63 L 45 64 L 44 64 z M 53 63 L 54 63 L 54 64 L 53 64 z M 61 63 L 62 63 L 62 64 L 61 64 z M 71 63 L 72 63 L 72 64 L 71 64 z M 85 63 L 86 63 L 86 64 L 85 64 z M 6 64 L 8 64 L 8 65 L 9 65 L 9 66 L 8 66 L 8 67 L 6 67 L 6 68 L 9 68 L 9 69 L 5 69 L 5 73 L 3 73 L 3 71 L 4 71 L 4 70 L 3 70 L 3 71 L 2 71 L 2 72 L 0 72 L 0 70 L 2 70 L 2 69 L 0 69 L 0 68 L 3 68 L 3 69 L 4 69 L 4 68 L 5 68 L 5 67 L 3 67 L 3 66 L 4 66 L 4 65 L 6 65 L 6 66 L 7 66 L 7 65 L 6 65 z M 9 64 L 10 64 L 10 65 L 9 65 z M 13 64 L 15 64 L 15 65 L 13 65 z M 19 64 L 20 64 L 20 65 L 19 65 z M 36 64 L 37 64 L 37 65 L 38 65 L 38 66 L 40 66 L 40 67 L 39 67 L 39 69 L 38 69 L 38 68 L 37 68 L 37 66 L 36 66 z M 38 64 L 40 64 L 40 65 L 38 65 z M 51 64 L 53 64 L 53 65 L 52 65 L 52 67 L 50 67 L 50 69 L 47 69 L 47 68 L 49 68 L 49 65 L 50 65 L 50 66 L 51 66 z M 59 64 L 60 64 L 60 65 L 62 65 L 62 66 L 61 66 L 61 67 L 59 67 L 59 68 L 58 68 L 58 67 L 56 67 L 56 69 L 55 69 L 55 70 L 53 70 L 53 69 L 54 69 L 54 67 L 55 67 L 55 65 L 56 65 L 56 66 L 57 66 L 57 65 L 58 65 L 58 66 L 59 66 z M 72 64 L 73 64 L 73 66 L 75 66 L 75 65 L 74 65 L 74 64 L 76 64 L 76 67 L 72 67 z M 83 64 L 84 64 L 84 66 L 83 66 z M 10 65 L 11 65 L 11 67 L 10 67 z M 15 65 L 16 65 L 16 67 L 19 67 L 19 68 L 18 68 L 18 69 L 17 69 L 17 70 L 16 70 L 16 71 L 15 71 L 15 69 L 16 69 L 16 68 L 15 68 L 15 67 L 14 67 L 14 66 L 15 66 z M 20 65 L 21 65 L 21 66 L 22 66 L 22 71 L 23 71 L 23 72 L 22 72 L 22 73 L 21 73 L 21 71 L 20 71 L 20 73 L 19 73 L 19 70 L 18 70 L 18 69 L 20 69 L 20 70 L 21 70 L 21 69 L 20 69 L 20 68 L 21 68 L 21 67 L 20 67 z M 25 65 L 26 65 L 26 66 L 25 66 z M 53 65 L 54 65 L 54 66 L 53 66 z M 91 65 L 92 65 L 92 66 L 91 66 z M 12 66 L 13 66 L 13 67 L 14 67 L 14 68 L 12 68 z M 23 66 L 25 66 L 25 67 L 24 67 L 24 69 L 23 69 z M 27 66 L 28 66 L 28 67 L 27 67 z M 34 66 L 36 66 L 36 68 L 37 68 L 37 69 L 38 69 L 38 70 L 39 70 L 39 69 L 40 69 L 40 71 L 41 71 L 41 72 L 39 72 L 39 71 L 36 71 L 36 69 L 35 69 L 35 67 L 34 67 z M 70 66 L 71 66 L 71 67 L 70 67 z M 84 66 L 86 66 L 86 68 L 85 68 L 85 69 L 84 69 z M 90 66 L 91 66 L 91 67 L 90 67 z M 92 66 L 93 66 L 93 67 L 92 67 z M 25 67 L 26 67 L 26 68 L 25 68 z M 28 67 L 29 67 L 29 68 L 31 68 L 31 70 L 33 70 L 33 71 L 32 71 L 32 74 L 33 74 L 33 75 L 32 75 L 32 77 L 31 77 L 31 75 L 30 75 L 30 77 L 29 77 L 29 76 L 28 76 L 28 75 L 29 75 L 29 73 L 28 73 L 28 75 L 27 75 L 27 76 L 26 76 L 26 77 L 25 77 L 25 76 L 24 76 L 24 77 L 23 77 L 23 76 L 22 76 L 22 77 L 18 77 L 18 76 L 17 76 L 17 77 L 18 77 L 18 78 L 19 78 L 19 80 L 23 80 L 23 83 L 22 83 L 22 81 L 19 81 L 19 83 L 20 83 L 20 85 L 19 85 L 19 86 L 22 86 L 22 88 L 24 88 L 24 89 L 22 89 L 22 90 L 23 90 L 23 91 L 22 91 L 22 93 L 20 93 L 20 92 L 17 92 L 17 90 L 15 90 L 15 91 L 16 91 L 16 92 L 17 92 L 17 93 L 14 93 L 14 91 L 13 91 L 13 92 L 12 92 L 12 91 L 11 91 L 11 90 L 12 90 L 12 89 L 11 89 L 11 87 L 13 87 L 13 88 L 16 88 L 16 89 L 17 89 L 17 88 L 16 88 L 16 86 L 15 86 L 15 85 L 17 85 L 17 86 L 18 86 L 18 85 L 17 85 L 17 84 L 16 84 L 16 82 L 17 82 L 17 83 L 18 83 L 18 82 L 17 82 L 17 81 L 18 81 L 18 79 L 17 79 L 17 78 L 16 78 L 16 76 L 15 76 L 15 73 L 16 73 L 16 72 L 17 72 L 17 73 L 19 73 L 19 74 L 17 74 L 17 75 L 19 75 L 19 76 L 21 76 L 21 74 L 22 74 L 22 75 L 23 75 L 23 74 L 24 74 L 24 75 L 25 75 L 25 73 L 27 73 L 27 72 L 25 72 L 25 73 L 23 73 L 23 72 L 24 72 L 24 71 L 23 71 L 23 70 L 25 70 L 25 69 L 27 69 L 27 68 L 28 68 zM 26 70 L 27 70 L 27 71 L 26 71 z M 28 71 L 31 71 L 31 72 L 28 72 z M 18 87 L 19 87 L 19 88 L 18 88 z M 20 87 L 21 87 L 21 91 L 20 91 L 20 90 L 19 90 L 19 88 L 20 88 z M 31 67 L 32 67 L 32 68 L 31 68 z M 33 67 L 34 67 L 34 68 L 33 68 z M 52 67 L 53 67 L 53 68 L 52 68 z M 71 67 L 72 67 L 72 68 L 71 68 z M 76 67 L 77 67 L 77 70 L 78 70 L 78 71 L 77 71 L 77 72 L 78 72 L 78 71 L 80 71 L 80 70 L 81 70 L 81 71 L 82 71 L 82 72 L 83 72 L 83 73 L 84 73 L 84 74 L 83 74 L 83 77 L 82 77 L 82 78 L 81 78 L 81 79 L 82 79 L 82 80 L 83 80 L 83 81 L 84 81 L 84 82 L 83 82 L 83 83 L 82 83 L 82 82 L 81 82 L 81 80 L 79 80 L 79 78 L 80 78 L 80 77 L 81 77 L 81 76 L 82 76 L 82 74 L 81 74 L 81 76 L 79 76 L 79 75 L 80 75 L 80 73 L 81 73 L 81 72 L 79 72 L 79 74 L 78 74 L 78 73 L 76 73 L 76 74 L 75 74 L 75 73 L 74 73 L 74 71 L 73 71 L 73 70 L 74 70 L 74 69 L 75 69 L 75 70 L 76 70 L 76 69 L 75 69 L 75 68 L 76 68 zM 75 71 L 76 71 L 76 72 L 75 72 z M 87 67 L 89 67 L 89 68 L 90 68 L 90 70 L 89 70 L 89 69 L 87 69 z M 10 68 L 11 68 L 11 69 L 10 69 z M 14 68 L 15 68 L 15 69 L 14 69 z M 45 68 L 46 68 L 46 70 L 48 70 L 48 71 L 47 71 L 47 73 L 46 73 L 46 74 L 47 74 L 47 75 L 43 75 L 43 74 L 44 74 L 44 73 L 45 73 L 45 72 L 46 72 L 46 71 L 45 71 z M 59 68 L 60 68 L 60 69 L 59 69 z M 13 69 L 14 69 L 14 70 L 13 70 z M 51 69 L 52 69 L 52 70 L 51 70 z M 57 69 L 59 69 L 59 70 L 58 70 L 58 71 L 56 71 L 56 72 L 57 72 L 57 73 L 55 73 L 55 72 L 54 72 L 54 73 L 53 73 L 53 72 L 52 72 L 52 73 L 51 73 L 51 72 L 50 72 L 50 70 L 51 70 L 51 71 L 55 71 L 55 70 L 57 70 z M 71 69 L 73 69 L 73 70 L 71 70 z M 86 69 L 87 69 L 87 70 L 86 70 z M 92 69 L 93 69 L 93 70 L 92 70 z M 6 70 L 12 70 L 12 71 L 6 71 z M 17 70 L 18 70 L 18 72 L 17 72 z M 34 70 L 35 70 L 35 71 L 34 71 z M 59 70 L 60 70 L 60 71 L 59 71 z M 65 70 L 66 70 L 66 71 L 65 71 z M 70 70 L 71 70 L 71 71 L 70 71 z M 85 70 L 86 70 L 86 71 L 85 71 z M 87 70 L 88 70 L 88 72 L 89 72 L 89 73 L 87 73 z M 14 71 L 15 71 L 15 73 L 14 73 z M 33 71 L 34 71 L 34 73 L 33 73 z M 35 71 L 36 71 L 36 72 L 37 72 L 37 73 L 36 73 L 36 74 L 35 74 z M 44 71 L 45 71 L 45 72 L 44 72 z M 48 71 L 49 71 L 49 72 L 48 72 z M 60 71 L 61 71 L 61 72 L 64 72 L 64 71 L 65 71 L 65 74 L 64 74 L 64 73 L 63 73 L 63 74 L 62 74 L 62 73 L 61 73 L 61 74 L 60 74 z M 66 71 L 67 71 L 67 72 L 69 72 L 69 71 L 70 71 L 70 72 L 71 72 L 71 73 L 70 73 L 70 74 L 69 74 L 69 75 L 67 75 L 67 74 L 66 74 z M 71 71 L 72 71 L 72 72 L 71 72 z M 90 71 L 92 71 L 92 72 L 90 72 z M 6 72 L 8 72 L 8 73 L 6 73 z M 9 72 L 13 72 L 13 73 L 14 73 L 14 75 L 9 75 L 9 74 L 10 74 L 10 73 L 9 73 zM 11 73 L 12 73 L 12 74 L 11 74 z M 41 72 L 43 72 L 43 74 L 41 74 z M 49 72 L 50 72 L 50 74 L 48 74 L 48 73 L 49 73 z M 85 72 L 86 72 L 86 73 L 87 73 L 87 74 L 85 74 z M 92 72 L 93 72 L 93 74 L 92 74 L 92 75 L 91 75 L 91 76 L 90 76 L 90 77 L 87 77 L 87 76 L 89 76 L 89 75 L 90 75 L 90 73 L 92 73 z M 1 73 L 2 73 L 2 74 L 1 74 z M 20 73 L 21 73 L 21 74 L 20 74 z M 37 73 L 38 73 L 38 74 L 41 74 L 41 75 L 43 75 L 43 76 L 45 76 L 45 78 L 48 78 L 48 79 L 46 79 L 46 80 L 44 80 L 44 81 L 43 81 L 43 82 L 42 82 L 42 83 L 41 83 L 41 84 L 39 84 L 39 83 L 40 83 L 40 81 L 41 81 L 41 80 L 43 80 L 43 78 L 44 78 L 44 77 L 43 77 L 43 78 L 41 78 L 41 77 L 42 77 L 42 76 L 40 76 L 40 78 L 33 78 L 33 79 L 32 79 L 32 77 L 33 77 L 33 75 L 34 75 L 34 77 L 35 77 L 35 76 L 37 76 L 37 77 L 38 77 L 38 76 L 37 76 L 37 75 L 36 75 L 36 74 L 37 74 z M 52 73 L 53 73 L 53 76 L 52 76 L 52 77 L 50 77 L 50 78 L 49 78 L 49 77 L 46 77 L 46 76 L 49 76 L 49 75 L 50 75 L 50 74 L 51 74 L 51 75 L 52 75 z M 54 73 L 55 73 L 55 74 L 54 74 z M 57 73 L 59 73 L 59 74 L 60 74 L 60 75 L 59 75 L 59 76 L 58 76 L 58 75 L 56 75 L 56 78 L 52 78 L 52 77 L 53 77 L 53 76 L 54 76 L 54 77 L 55 77 L 55 76 L 54 76 L 54 75 L 55 75 L 55 74 L 57 74 z M 72 73 L 73 73 L 73 74 L 74 74 L 74 75 L 72 75 z M 0 74 L 1 74 L 1 75 L 0 75 z M 4 74 L 8 74 L 8 75 L 5 75 L 5 77 L 6 77 L 6 78 L 4 78 L 4 76 L 3 76 L 3 75 L 4 75 z M 34 74 L 35 74 L 35 75 L 34 75 z M 61 74 L 62 74 L 62 75 L 61 75 z M 65 74 L 66 74 L 66 75 L 65 75 z M 70 74 L 71 74 L 71 75 L 70 75 z M 76 74 L 78 74 L 78 75 L 77 75 L 77 78 L 76 78 L 76 77 L 75 77 L 75 75 L 76 75 z M 87 74 L 88 74 L 88 75 L 87 75 z M 8 75 L 9 75 L 9 77 L 10 77 L 10 78 L 9 78 L 9 79 L 11 79 L 11 76 L 12 76 L 12 77 L 13 77 L 13 78 L 14 78 L 14 77 L 13 77 L 13 76 L 15 76 L 15 78 L 16 78 L 16 79 L 14 79 L 14 80 L 16 80 L 16 82 L 15 82 L 15 84 L 14 84 L 14 81 L 13 81 L 13 82 L 12 82 L 12 81 L 10 81 L 10 84 L 9 84 L 9 82 L 7 82 L 7 81 L 6 81 L 6 82 L 5 82 L 5 83 L 6 83 L 6 84 L 3 84 L 3 83 L 4 83 L 4 80 L 3 80 L 3 78 L 4 78 L 4 79 L 6 79 L 6 80 L 8 80 L 8 81 L 9 81 L 9 80 L 8 80 L 8 77 L 6 77 L 6 76 L 8 76 zM 12 79 L 13 79 L 13 80 L 12 80 z M 60 75 L 61 75 L 61 78 L 60 78 z M 71 75 L 72 75 L 72 76 L 71 76 z M 84 75 L 87 75 L 87 76 L 86 76 L 86 77 L 87 77 L 87 78 L 86 78 L 86 79 L 87 79 L 87 78 L 88 78 L 88 80 L 89 80 L 89 79 L 91 79 L 91 81 L 92 81 L 92 83 L 91 83 L 91 84 L 90 84 L 90 83 L 89 83 L 89 87 L 90 87 L 90 85 L 91 85 L 91 86 L 92 86 L 92 87 L 93 87 L 93 88 L 92 88 L 92 89 L 91 89 L 91 88 L 90 88 L 90 91 L 89 91 L 89 90 L 88 90 L 88 91 L 86 91 L 86 90 L 87 90 L 87 89 L 85 89 L 85 90 L 84 90 L 84 87 L 83 87 L 83 90 L 81 90 L 81 88 L 80 88 L 80 86 L 81 86 L 81 87 L 82 87 L 82 86 L 81 86 L 81 83 L 82 83 L 82 85 L 83 85 L 83 86 L 84 86 L 84 82 L 86 82 L 86 83 L 85 83 L 85 84 L 88 84 L 88 83 L 87 83 L 87 82 L 86 82 L 86 81 L 87 81 L 87 80 L 86 80 L 86 81 L 84 81 L 84 80 L 83 80 L 83 79 L 85 79 L 85 78 L 83 78 L 83 77 L 84 77 zM 88 81 L 89 81 L 89 82 L 88 82 z M 85 85 L 88 85 L 88 88 L 85 88 z M 2 76 L 3 76 L 3 77 L 2 77 z M 27 76 L 28 76 L 28 77 L 27 77 z M 57 76 L 58 76 L 58 77 L 59 77 L 59 78 L 60 78 L 60 79 L 59 79 L 59 82 L 58 82 L 58 79 L 56 79 L 56 78 L 57 78 z M 62 76 L 65 76 L 65 77 L 64 77 L 64 78 L 62 78 z M 66 76 L 68 76 L 68 77 L 67 77 L 67 78 L 66 78 z M 69 76 L 71 76 L 71 77 L 70 77 L 70 78 L 69 78 z M 72 76 L 74 76 L 74 78 L 73 78 L 73 77 L 72 77 z M 22 77 L 23 77 L 23 78 L 22 78 z M 24 77 L 25 77 L 25 78 L 26 78 L 26 79 L 27 79 L 27 80 L 28 80 L 28 79 L 29 79 L 29 81 L 28 81 L 28 82 L 31 82 L 31 83 L 29 83 L 29 84 L 31 84 L 31 83 L 32 83 L 32 82 L 33 82 L 33 83 L 34 83 L 34 84 L 33 84 L 33 85 L 34 85 L 34 86 L 35 86 L 35 83 L 36 83 L 36 84 L 37 84 L 37 83 L 36 83 L 36 82 L 35 82 L 35 81 L 36 81 L 36 80 L 35 80 L 35 81 L 34 81 L 34 79 L 41 79 L 41 80 L 40 80 L 40 81 L 38 81 L 38 82 L 39 82 L 39 83 L 38 83 L 38 86 L 39 86 L 39 88 L 40 88 L 40 89 L 41 89 L 41 90 L 40 90 L 40 92 L 38 92 L 38 90 L 39 90 L 39 89 L 36 89 L 36 90 L 35 90 L 35 87 L 34 87 L 34 88 L 33 88 L 33 89 L 31 89 L 31 90 L 32 90 L 32 91 L 33 91 L 33 92 L 32 92 L 32 93 L 31 93 L 31 92 L 29 92 L 29 93 L 28 93 L 28 91 L 30 91 L 30 89 L 29 89 L 29 90 L 27 90 L 27 91 L 26 91 L 26 90 L 25 90 L 25 89 L 27 89 L 27 88 L 28 88 L 28 87 L 26 87 L 26 86 L 28 86 L 28 85 L 26 85 L 26 84 L 25 84 L 25 83 L 26 83 L 26 82 L 25 82 L 25 81 L 26 81 L 26 80 L 25 80 L 25 79 L 23 79 L 23 78 L 24 78 zM 27 83 L 28 83 L 28 84 L 27 84 z M 29 85 L 32 85 L 32 88 L 29 88 z M 36 87 L 38 87 L 38 88 L 36 88 z M 26 77 L 27 77 L 27 78 L 26 78 z M 71 77 L 72 77 L 72 79 L 70 79 L 70 78 L 71 78 z M 78 77 L 79 77 L 79 78 L 78 78 z M 91 77 L 93 77 L 93 79 L 91 79 z M 0 78 L 1 78 L 1 80 L 2 80 L 2 81 L 1 81 L 1 82 L 0 82 z M 6 78 L 7 78 L 7 79 L 6 79 z M 20 78 L 22 78 L 22 79 L 20 79 z M 27 78 L 28 78 L 28 79 L 27 79 z M 29 78 L 30 78 L 30 79 L 29 79 z M 50 78 L 51 78 L 51 79 L 54 79 L 54 81 L 55 81 L 55 82 L 54 82 L 54 85 L 55 85 L 55 82 L 58 82 L 58 83 L 56 83 L 56 84 L 58 84 L 58 83 L 59 83 L 59 84 L 60 84 L 60 83 L 61 83 L 61 82 L 62 82 L 62 84 L 64 84 L 64 87 L 61 87 L 61 88 L 65 88 L 65 90 L 64 90 L 64 91 L 62 91 L 62 92 L 60 92 L 60 90 L 63 90 L 63 89 L 60 89 L 60 90 L 59 90 L 59 89 L 56 89 L 56 88 L 55 88 L 55 89 L 56 89 L 56 90 L 55 90 L 55 92 L 54 92 L 54 90 L 53 90 L 53 89 L 54 89 L 54 87 L 55 87 L 55 86 L 53 86 L 53 88 L 52 88 L 52 89 L 50 89 L 50 90 L 49 90 L 49 91 L 48 91 L 48 90 L 47 90 L 47 89 L 48 89 L 48 87 L 49 87 L 49 86 L 50 86 L 50 85 L 47 85 L 47 84 L 49 84 L 49 83 L 50 83 L 50 82 L 51 82 L 51 83 L 52 83 L 52 82 L 53 82 L 53 80 L 50 80 zM 52 84 L 53 84 L 53 85 L 52 85 z M 57 85 L 60 85 L 60 88 L 57 88 z M 61 85 L 63 85 L 63 86 L 61 86 z M 51 86 L 52 86 L 52 87 L 51 87 z M 61 78 L 62 78 L 62 79 L 61 79 z M 65 78 L 66 78 L 66 80 L 65 80 L 65 81 L 64 81 L 64 82 L 62 82 L 62 81 L 63 81 L 63 80 L 64 80 L 64 79 L 65 79 z M 77 78 L 78 78 L 78 80 L 76 80 L 76 79 L 77 79 z M 16 79 L 17 79 L 17 80 L 16 80 z M 30 79 L 32 79 L 32 80 L 31 80 L 31 81 L 30 81 z M 55 79 L 56 79 L 56 80 L 55 80 z M 60 79 L 61 79 L 61 80 L 62 80 L 62 81 L 61 81 L 61 82 L 60 82 z M 67 79 L 70 79 L 70 81 L 68 81 L 68 80 L 67 80 z M 72 79 L 73 79 L 73 82 L 72 82 L 72 81 L 71 81 L 71 80 L 72 80 z M 24 80 L 25 80 L 25 81 L 24 81 z M 32 80 L 33 80 L 33 81 L 32 81 z M 47 80 L 50 80 L 50 82 L 49 82 L 49 81 L 47 81 z M 75 80 L 76 80 L 76 81 L 77 81 L 77 82 L 76 82 L 76 83 L 73 83 L 73 82 L 74 82 L 74 81 L 75 81 z M 78 80 L 79 80 L 79 81 L 78 81 z M 31 81 L 32 81 L 32 82 L 31 82 z M 45 81 L 46 81 L 46 82 L 45 82 z M 66 81 L 67 81 L 67 82 L 66 82 z M 6 82 L 7 82 L 7 83 L 6 83 z M 24 82 L 25 82 L 25 83 L 24 83 z M 34 82 L 35 82 L 35 83 L 34 83 z M 44 82 L 45 82 L 45 83 L 46 83 L 46 84 L 44 84 z M 47 82 L 48 82 L 48 83 L 47 83 z M 59 82 L 60 82 L 60 83 L 59 83 z M 65 82 L 66 82 L 66 83 L 65 83 z M 67 82 L 68 82 L 68 83 L 70 83 L 70 82 L 71 82 L 71 83 L 72 83 L 72 84 L 70 84 L 70 85 L 69 85 L 69 84 L 67 84 z M 0 83 L 2 83 L 2 84 L 3 84 L 3 85 L 1 85 L 1 84 L 0 84 z M 7 83 L 8 83 L 8 84 L 9 84 L 9 86 L 10 86 L 10 84 L 11 84 L 11 87 L 8 87 L 8 85 L 6 85 L 6 84 L 7 84 z M 21 83 L 22 83 L 22 84 L 24 84 L 24 85 L 21 85 z M 42 83 L 43 83 L 43 85 L 42 85 z M 64 83 L 65 83 L 65 84 L 64 84 z M 76 83 L 77 83 L 77 84 L 76 84 z M 78 83 L 80 83 L 80 84 L 79 84 L 79 85 L 80 85 L 80 86 L 78 86 z M 92 83 L 93 83 L 93 86 L 92 86 z M 12 84 L 14 84 L 14 87 L 13 87 L 13 85 L 12 85 z M 65 84 L 67 84 L 67 85 L 65 85 z M 72 84 L 73 84 L 73 86 L 76 86 L 76 87 L 73 87 L 73 89 L 72 89 L 72 88 L 71 88 L 71 89 L 70 89 L 70 90 L 67 90 L 67 89 L 69 89 L 69 88 L 70 88 L 70 87 L 72 87 z M 74 84 L 76 84 L 76 85 L 74 85 z M 25 85 L 26 85 L 26 86 L 25 86 z M 39 85 L 41 85 L 41 86 L 39 86 z M 23 86 L 25 86 L 25 88 L 24 88 L 24 87 L 23 87 z M 30 86 L 31 86 L 31 87 L 30 87 z M 41 86 L 48 86 L 48 87 L 47 87 L 47 89 L 46 89 L 46 87 L 45 87 L 45 88 L 44 88 L 44 87 L 43 87 L 43 88 L 44 88 L 44 89 L 43 89 L 43 90 L 42 90 L 42 88 L 40 88 L 40 87 L 41 87 z M 58 86 L 59 86 L 59 87 L 58 87 z M 65 86 L 66 86 L 66 87 L 65 87 z M 67 86 L 70 86 L 70 87 L 69 87 L 69 88 L 66 88 L 66 87 L 67 87 z M 77 86 L 78 86 L 78 87 L 77 87 z M 86 86 L 87 86 L 87 87 L 86 87 z M 76 87 L 77 87 L 77 88 L 76 88 z M 78 87 L 79 87 L 79 89 L 78 89 z M 8 88 L 10 88 L 10 89 L 11 89 L 11 90 L 9 90 L 9 92 L 10 92 L 10 93 L 8 93 z M 75 88 L 76 88 L 76 89 L 75 89 z M 33 89 L 34 89 L 34 90 L 33 90 z M 45 89 L 46 89 L 46 90 L 47 90 L 47 91 L 46 91 L 46 93 L 45 93 L 45 92 L 44 92 L 44 93 L 43 93 L 43 91 L 45 91 z M 76 89 L 77 89 L 77 90 L 76 90 z M 24 90 L 25 90 L 25 92 L 24 92 L 24 93 L 23 93 L 23 91 L 24 91 z M 36 90 L 37 90 L 37 91 L 36 91 z M 50 90 L 52 90 L 52 92 L 53 92 L 53 93 L 51 93 L 51 92 L 50 92 z M 57 90 L 58 90 L 58 91 L 59 91 L 59 93 L 58 93 L 58 92 L 57 92 z M 65 90 L 66 90 L 66 91 L 65 91 z M 70 90 L 71 90 L 71 91 L 72 91 L 72 90 L 75 90 L 75 92 L 76 92 L 76 93 L 73 93 L 73 92 L 71 92 L 71 93 L 68 93 L 68 92 L 67 92 L 67 93 L 65 93 L 65 92 L 66 92 L 66 91 L 69 91 L 69 92 L 70 92 z M 77 90 L 78 90 L 78 91 L 82 91 L 82 92 L 88 92 L 88 93 L 81 93 L 81 92 L 77 92 z M 83 90 L 84 90 L 84 91 L 83 91 z M 41 91 L 42 91 L 42 92 L 41 92 z M 64 91 L 65 91 L 65 92 L 64 92 z M 11 92 L 12 92 L 12 93 L 11 93 z M 36 92 L 38 92 L 38 93 L 36 93 z M 40 92 L 41 92 L 41 93 L 40 93 z M 47 92 L 50 92 L 50 93 L 47 93 z M 55 92 L 57 92 L 57 93 L 55 93 z M 63 92 L 64 92 L 64 93 L 63 93 z M 89 92 L 92 92 L 92 93 L 89 93 z"></path><path id="qr squares" d="M0,0h7h0v0v7v0h0h-7h0v0v-7v0h0zM1,1h5h0v0v5v0h0h-5h0v0v-5v0h0zM2,2h3h0v0v3v0h0h-3h0v0v-3v0h0z M86,0h7h0v0v7v0h0h-7h0v0v-7v0h0zM87,1h5h0v0v5v0h0h-5h0v0v-5v0h0zM88,2h3h0v0v3v0h0h-3h0v0v-3v0h0z M0,86h7h0v0v7v0h0h-7h0v0v-7v0h0zM1,87h5h0v0v5v0h0h-5h0v0v-5v0h0zM2,88h3h0v0v3v0h0h-3h0v0v-3v0h0z" fill-rule="evenodd" fill-opacity="1" fill="rgb(0, 0, 0)"></path></svg>